<svg viewBox="0.00 0.00 838.00 839.00" version="1.1" xmlns="http://www.w3.org/2000/svg">
<g stroke-linecap="butt" fill="none" stroke-width="2.00">
<path d="M 225.46 95.71
  A 14.46 14.46 0.0 0 0 211.00 81.25
  A 14.46 14.46 0.0 0 0 196.54 95.71
  A 14.46 14.46 0.0 0 0 211.00 110.17
  A 14.46 14.46 0.0 0 0 225.46 95.71" stroke="#808080"></path>
<path d="M 648.28 99.19
  A 14.44 14.44 0.0 0 0 633.84 84.75
  A 14.44 14.44 0.0 0 0 619.40 99.19
  A 14.44 14.44 0.0 0 0 633.84 113.63
  A 14.44 14.44 0.0 0 0 648.28 99.19" stroke="#808080"></path>
<path d="M 141.1968 129.1865
  A 17.71 17.04 45.8 0 0 141.0662 104.6103
  A 17.71 17.04 45.8 0 0 116.5032 103.7935
  A 17.71 17.04 45.8 0 0 116.6338 128.3697
  A 17.71 17.04 45.8 0 0 141.1968 129.1865" stroke="#808080"></path>
<path d="M 734.8467 116.5607
  A 17.72 17.02 -44.0 0 0 710.2769 116.6268
  A 17.72 17.02 -44.0 0 0 709.3533 141.1793
  A 17.72 17.02 -44.0 0 0 733.9231 141.1132
  A 17.72 17.02 -44.0 0 0 734.8467 116.5607" stroke="#808080"></path>
<path d="M 595.31 143.96
  A 17.74 17.74 0.0 0 0 577.57 126.22
  A 17.74 17.74 0.0 0 0 559.83 143.96
  A 17.74 17.74 0.0 0 0 577.57 161.70
  A 17.74 17.74 0.0 0 0 595.31 143.96" stroke="#808080"></path>
<path d="M 285.11 145.30
  A 17.74 17.74 0.0 0 0 267.37 127.56
  A 17.74 17.74 0.0 0 0 249.63 145.30
  A 17.74 17.74 0.0 0 0 267.37 163.04
  A 17.74 17.74 0.0 0 0 285.11 145.30" stroke="#808080"></path>
<path d="M 207.6224 163.2793
  A 27.59 26.97 -41.0 0 0 169.1061 161.0255
  A 27.59 26.97 -41.0 0 0 165.9776 199.4807
  A 27.59 26.97 -41.0 0 0 204.4939 201.7345
  A 27.59 26.97 -41.0 0 0 207.6224 163.2793" stroke="#808080"></path>
<path d="M 675.3032 207.8512
  A 27.69 27.01 49.2 0 0 677.6564 169.2411
  A 27.69 27.01 49.2 0 0 639.1168 165.9288
  A 27.69 27.01 49.2 0 0 636.7636 204.5389
  A 27.69 27.01 49.2 0 0 675.3032 207.8512" stroke="#808080"></path>
<path d="M 529.2880 220.2298
  A 27.65 26.98 46.6 0 0 529.8930 181.6024
  A 27.65 26.98 46.6 0 0 491.2920 180.0502
  A 27.65 26.98 46.6 0 0 490.6870 218.6776
  A 27.65 26.98 46.6 0 0 529.2880 220.2298" stroke="#808080"></path>
<path d="M 311.9463 224.2284
  A 27.68 26.95 133.5 0 0 350.5488 222.7012
  A 27.68 26.95 133.5 0 0 350.0537 184.0716
  A 27.68 26.95 133.5 0 0 311.4512 185.5988
  A 27.68 26.95 133.5 0 0 311.9463 224.2284" stroke="#808080"></path>
<path d="M 113.65 204.79
  A 14.45 14.45 0.0 0 0 99.20 190.34
  A 14.45 14.45 0.0 0 0 84.75 204.79
  A 14.45 14.45 0.0 0 0 99.20 219.24
  A 14.45 14.45 0.0 0 0 113.65 204.79" stroke="#808080"></path>
<path d="M 757.31 211.06
  A 14.44 14.44 0.0 0 0 742.87 196.62
  A 14.44 14.44 0.0 0 0 728.43 211.06
  A 14.44 14.44 0.0 0 0 742.87 225.50
  A 14.44 14.44 0.0 0 0 757.31 211.06" stroke="#808080"></path>
<path d="M 276.56 224.92
  Q 269.10 220.75 261.15 220.08
  C 238.37 218.15 219.77 239.79 223.03 261.76
  C 227.12 289.36 258.93 300.76 280.81 285.09
  C 301.65 270.16 298.46 237.16 276.56 224.92" stroke="#808080"></path>
<path d="M 597.07 226.16
  C 584.63 220.59 569.10 221.78 558.89 231.14
  Q 544.37 244.46 547.18 264.72
  C 551.90 298.83 596.14 305.45 613.42 277.45
  C 624.82 258.98 616.77 234.99 597.07 226.16" stroke="#808080"></path>
<path d="M 455.52 278.80
  C 457.97 256.41 439.43 236.42 416.46 238.47
  C 379.32 241.79 370.69 295.03 407.09 308.10
  C 429.36 316.10 452.93 302.44 455.52 278.80" stroke="#808080"></path>
<path d="M 161.65 261.11
  A 17.75 17.75 0.0 0 0 143.90 243.36
  A 17.75 17.75 0.0 0 0 126.15 261.11
  A 17.75 17.75 0.0 0 0 143.90 278.86
  A 17.75 17.75 0.0 0 0 161.65 261.11" stroke="#808080"></path>
<path d="M 711.03 267.46
  A 17.73 17.73 0.0 0 0 693.30 249.73
  A 17.73 17.73 0.0 0 0 675.57 267.46
  A 17.73 17.73 0.0 0 0 693.30 285.19
  A 17.73 17.73 0.0 0 0 711.03 267.46" stroke="#808080"></path>
<path d="M 534.8982 302.5536
  A 46.71 45.99 -42.3 0 0 469.3982 299.9744
  A 46.71 45.99 -42.3 0 0 465.8018 365.4264
  A 46.71 45.99 -42.3 0 0 531.3018 368.0056
  A 46.71 45.99 -42.3 0 0 534.8982 302.5536" stroke="#808080"></path>
<path d="M 366.1318 372.1415
  A 46.74 46.07 46.3 0 0 367.1471 306.5210
  A 46.74 46.07 46.3 0 0 301.5482 304.5585
  A 46.74 46.07 46.3 0 0 300.5329 370.1790
  A 46.74 46.07 46.3 0 0 366.1318 372.1415" stroke="#808080"></path>
<path d="M 180.0840 347.6156
  A 27.64 26.98 136.1 0 0 218.7080 347.8905
  A 27.64 26.98 136.1 0 0 219.9160 309.2844
  A 27.64 26.98 136.1 0 0 181.2920 309.0095
  A 27.64 26.98 136.1 0 0 180.0840 347.6156" stroke="#808080"></path>
<path d="M 653.3730 351.2417
  A 27.57 27.02 46.6 0 0 654.0620 312.6449
  A 27.57 27.02 46.6 0 0 615.4870 311.1783
  A 27.57 27.02 46.6 0 0 614.7980 349.7751
  A 27.57 27.02 46.6 0 0 653.3730 351.2417" stroke="#808080"></path>
<path d="M 459.3183 462.7993
  A 55.55 54.77 46.0 0 0 460.1282 384.7936
  A 55.55 54.77 46.0 0 0 382.1417 382.8807
  A 55.55 54.77 46.0 0 0 381.3318 460.8864
  A 55.55 54.77 46.0 0 0 459.3183 462.7993" stroke="#808080"></path>
<path d="M 298.99 416.75
  C 295.04 396.92 275.63 384.73 256.02 389.54
  C 224.21 397.34 217.03 438.23 245.52 455.22
  C 273.74 472.04 305.20 447.87 298.99 416.75" stroke="#808080"></path>
<path d="M 533.31 409.66
  C 527.45 423.13 530.29 440.98 541.13 450.91
  C 554.79 463.43 575.61 463.95 589.62 451.81
  C 605.05 438.43 606.92 416.14 593.28 400.72
  Q 586.50 393.05 576.79 390.19
  C 558.79 384.88 540.70 392.65 533.31 409.66" stroke="#808080"></path>
<path d="M 372.25 499.41
  A 46.10 46.10 0.0 0 0 326.15 453.31
  A 46.10 46.10 0.0 0 0 280.05 499.41
  A 46.10 46.10 0.0 0 0 326.15 545.51
  A 46.10 46.10 0.0 0 0 372.25 499.41" stroke="#808080"></path>
<path d="M 545.28 512.73
  A 46.14 46.14 0.0 0 0 499.14 466.59
  A 46.14 46.14 0.0 0 0 453.00 512.73
  A 46.14 46.14 0.0 0 0 499.14 558.87
  A 46.14 46.14 0.0 0 0 545.28 512.73" stroke="#808080"></path>
<path d="M 219.0848 525.9424
  A 27.62 27.00 43.5 0 0 217.6356 487.3449
  A 27.62 27.00 43.5 0 0 179.0152 487.9176
  A 27.62 27.00 43.5 0 0 180.4644 526.5151
  A 27.62 27.00 43.5 0 0 219.0848 525.9424" stroke="#808080"></path>
<path d="M 653.4916 492.2782
  A 27.62 26.97 -43.9 0 0 614.8890 491.9967
  A 27.62 26.97 -43.9 0 0 613.6884 530.5818
  A 27.62 26.97 -43.9 0 0 652.2910 530.8633
  A 27.62 26.97 -43.9 0 0 653.4916 492.2782" stroke="#808080"></path>
<path d="M 412.58 541.04
  C 378.20 537.02 358.81 576.65 382.24 601.55
  C 402.47 623.04 436.59 612.55 443.11 584.64
  C 448.10 563.33 434.64 543.62 412.58 541.04" stroke="#808080"></path>
<path d="M 244.32 614.43
  C 275.91 626.36 303.81 590.17 287.75 562.03
  C 278.98 546.66 258.93 540.56 242.52 547.04
  C 211.28 559.37 214.15 603.04 244.32 614.43" stroke="#808080"></path>
<path d="M 566.06 548.87
  C 550.51 554.94 541.69 572.40 544.53 588.76
  C 548.78 613.33 575.14 626.36 597.31 614.00
  C 617.95 602.49 622.92 575.17 606.29 557.96
  C 595.64 546.93 580.19 543.35 566.06 548.87" stroke="#808080"></path>
<path d="M 159.32 573.09
  A 17.75 17.75 0.0 0 0 141.57 555.34
  A 17.75 17.75 0.0 0 0 123.82 573.09
  A 17.75 17.75 0.0 0 0 141.57 590.84
  A 17.75 17.75 0.0 0 0 159.32 573.09" stroke="#808080"></path>
<path d="M 708.82 576.27
  A 17.73 17.73 0.0 0 0 691.09 558.54
  A 17.73 17.73 0.0 0 0 673.36 576.27
  A 17.73 17.73 0.0 0 0 691.09 594.00
  A 17.73 17.73 0.0 0 0 708.82 576.27" stroke="#808080"></path>
<path d="M 347.1585 653.3872
  A 27.66 26.95 44.5 0 0 346.3195 614.7779
  A 27.66 26.95 44.5 0 0 307.7015 614.6128
  A 27.66 26.95 44.5 0 0 308.5405 653.2221
  A 27.66 26.95 44.5 0 0 347.1585 653.3872" stroke="#808080"></path>
<path d="M 488.6356 660.7621
  A 27.61 26.99 130.7 0 0 527.1020 657.4301
  A 27.61 26.99 130.7 0 0 524.6444 618.8979
  A 27.61 26.99 130.7 0 0 486.1780 622.2299
  A 27.61 26.99 130.7 0 0 488.6356 660.7621" stroke="#808080"></path>
<path d="M 110.14 628.45
  A 14.46 14.46 0.0 0 0 95.68 613.99
  A 14.46 14.46 0.0 0 0 81.22 628.45
  A 14.46 14.46 0.0 0 0 95.68 642.91
  A 14.46 14.46 0.0 0 0 110.14 628.45" stroke="#808080"></path>
<path d="M 753.94 633.69
  A 14.46 14.46 0.0 0 0 739.48 619.23
  A 14.46 14.46 0.0 0 0 725.02 633.69
  A 14.46 14.46 0.0 0 0 739.48 648.15
  A 14.46 14.46 0.0 0 0 753.94 633.69" stroke="#808080"></path>
<path d="M 203.0373 672.5236
  A 27.63 26.99 43.0 0 0 201.2371 633.9408
  A 27.63 26.99 43.0 0 0 162.6227 634.8364
  A 27.63 26.99 43.0 0 0 164.4229 673.4192
  A 27.63 26.99 43.0 0 0 203.0373 672.5236" stroke="#808080"></path>
<path d="M 673.9396 637.7097
  A 27.63 26.95 -41.7 0 0 635.3820 635.9681
  A 27.63 26.95 -41.7 0 0 632.6804 674.4703
  A 27.63 26.95 -41.7 0 0 671.2380 676.2119
  A 27.63 26.95 -41.7 0 0 673.9396 637.7097" stroke="#808080"></path>
<path d="M 280.34 691.44
  A 17.76 17.76 0.0 0 0 262.58 673.68
  A 17.76 17.76 0.0 0 0 244.82 691.44
  A 17.76 17.76 0.0 0 0 262.58 709.20
  A 17.76 17.76 0.0 0 0 280.34 691.44" stroke="#808080"></path>
<path d="M 590.55 697.38
  A 17.74 17.74 0.0 0 0 572.81 679.64
  A 17.74 17.74 0.0 0 0 555.07 697.38
  A 17.74 17.74 0.0 0 0 572.81 715.12
  A 17.74 17.74 0.0 0 0 590.55 697.38" stroke="#808080"></path>
<path d="M 729.6493 727.7598
  A 17.70 17.06 44.2 0 0 728.8536 703.1895
  A 17.70 17.06 44.2 0 0 704.2707 703.0802
  A 17.70 17.06 44.2 0 0 705.0664 727.6505
  A 17.70 17.06 44.2 0 0 729.6493 727.7598" stroke="#808080"></path>
<path d="M 111.1471 730.0592
  A 17.73 17.04 134.3 0 0 135.7254 729.2710
  A 17.73 17.04 134.3 0 0 135.9129 704.6808
  A 17.73 17.04 134.3 0 0 111.3346 705.4690
  A 17.73 17.04 134.3 0 0 111.1471 730.0592" stroke="#808080"></path>
<path d="M 219.67 739.87
  A 14.45 14.45 0.0 0 0 205.22 725.42
  A 14.45 14.45 0.0 0 0 190.77 739.87
  A 14.45 14.45 0.0 0 0 205.22 754.32
  A 14.45 14.45 0.0 0 0 219.67 739.87" stroke="#808080"></path>
<path d="M 642.57 743.27
  A 14.45 14.45 0.0 0 0 628.12 728.82
  A 14.45 14.45 0.0 0 0 613.67 743.27
  A 14.45 14.45 0.0 0 0 628.12 757.72
  A 14.45 14.45 0.0 0 0 642.57 743.27" stroke="#808080"></path>
</g>
<path d="M 0.00 0.00
  L 838.00 0.00
  L 838.00 839.00
  L 0.00 839.00
  L 0.00 0.00
  Z
  M 225.46 95.71
  A 14.46 14.46 0.0 0 0 211.00 81.25
  A 14.46 14.46 0.0 0 0 196.54 95.71
  A 14.46 14.46 0.0 0 0 211.00 110.17
  A 14.46 14.46 0.0 0 0 225.46 95.71
  Z
  M 648.28 99.19
  A 14.44 14.44 0.0 0 0 633.84 84.75
  A 14.44 14.44 0.0 0 0 619.40 99.19
  A 14.44 14.44 0.0 0 0 633.84 113.63
  A 14.44 14.44 0.0 0 0 648.28 99.19
  Z
  M 141.1968 129.1865
  A 17.71 17.04 45.8 0 0 141.0662 104.6103
  A 17.71 17.04 45.8 0 0 116.5032 103.7935
  A 17.71 17.04 45.8 0 0 116.6338 128.3697
  A 17.71 17.04 45.8 0 0 141.1968 129.1865
  Z
  M 734.8467 116.5607
  A 17.72 17.02 -44.0 0 0 710.2769 116.6268
  A 17.72 17.02 -44.0 0 0 709.3533 141.1793
  A 17.72 17.02 -44.0 0 0 733.9231 141.1132
  A 17.72 17.02 -44.0 0 0 734.8467 116.5607
  Z
  M 595.31 143.96
  A 17.74 17.74 0.0 0 0 577.57 126.22
  A 17.74 17.74 0.0 0 0 559.83 143.96
  A 17.74 17.74 0.0 0 0 577.57 161.70
  A 17.74 17.74 0.0 0 0 595.31 143.96
  Z
  M 285.11 145.30
  A 17.74 17.74 0.0 0 0 267.37 127.56
  A 17.74 17.74 0.0 0 0 249.63 145.30
  A 17.74 17.74 0.0 0 0 267.37 163.04
  A 17.74 17.74 0.0 0 0 285.11 145.30
  Z
  M 207.6224 163.2793
  A 27.59 26.97 -41.0 0 0 169.1061 161.0255
  A 27.59 26.97 -41.0 0 0 165.9776 199.4807
  A 27.59 26.97 -41.0 0 0 204.4939 201.7345
  A 27.59 26.97 -41.0 0 0 207.6224 163.2793
  Z
  M 675.3032 207.8512
  A 27.69 27.01 49.2 0 0 677.6564 169.2411
  A 27.69 27.01 49.2 0 0 639.1168 165.9288
  A 27.69 27.01 49.2 0 0 636.7636 204.5389
  A 27.69 27.01 49.2 0 0 675.3032 207.8512
  Z
  M 529.2880 220.2298
  A 27.65 26.98 46.6 0 0 529.8930 181.6024
  A 27.65 26.98 46.6 0 0 491.2920 180.0502
  A 27.65 26.98 46.6 0 0 490.6870 218.6776
  A 27.65 26.98 46.6 0 0 529.2880 220.2298
  Z
  M 311.9463 224.2284
  A 27.68 26.95 133.5 0 0 350.5488 222.7012
  A 27.68 26.95 133.5 0 0 350.0537 184.0716
  A 27.68 26.95 133.5 0 0 311.4512 185.5988
  A 27.68 26.95 133.5 0 0 311.9463 224.2284
  Z
  M 113.65 204.79
  A 14.45 14.45 0.0 0 0 99.20 190.34
  A 14.45 14.45 0.0 0 0 84.75 204.79
  A 14.45 14.45 0.0 0 0 99.20 219.24
  A 14.45 14.45 0.0 0 0 113.65 204.79
  Z
  M 757.31 211.06
  A 14.44 14.44 0.0 0 0 742.87 196.62
  A 14.44 14.44 0.0 0 0 728.43 211.06
  A 14.44 14.44 0.0 0 0 742.87 225.50
  A 14.44 14.44 0.0 0 0 757.31 211.06
  Z
  M 276.56 224.92
  Q 269.10 220.75 261.15 220.08
  C 238.37 218.15 219.77 239.79 223.03 261.76
  C 227.12 289.36 258.93 300.76 280.81 285.09
  C 301.65 270.16 298.46 237.16 276.56 224.92
  Z
  M 597.07 226.16
  C 584.63 220.59 569.10 221.78 558.89 231.14
  Q 544.37 244.46 547.18 264.72
  C 551.90 298.83 596.14 305.45 613.42 277.45
  C 624.82 258.98 616.77 234.99 597.07 226.16
  Z
  M 455.52 278.80
  C 457.97 256.41 439.43 236.42 416.46 238.47
  C 379.32 241.79 370.69 295.03 407.09 308.10
  C 429.36 316.10 452.93 302.44 455.52 278.80
  Z
  M 161.65 261.11
  A 17.75 17.75 0.0 0 0 143.90 243.36
  A 17.75 17.75 0.0 0 0 126.15 261.11
  A 17.75 17.75 0.0 0 0 143.90 278.86
  A 17.75 17.75 0.0 0 0 161.65 261.11
  Z
  M 711.03 267.46
  A 17.73 17.73 0.0 0 0 693.30 249.73
  A 17.73 17.73 0.0 0 0 675.57 267.46
  A 17.73 17.73 0.0 0 0 693.30 285.19
  A 17.73 17.73 0.0 0 0 711.03 267.46
  Z
  M 534.8982 302.5536
  A 46.71 45.99 -42.3 0 0 469.3982 299.9744
  A 46.71 45.99 -42.3 0 0 465.8018 365.4264
  A 46.71 45.99 -42.3 0 0 531.3018 368.0056
  A 46.71 45.99 -42.3 0 0 534.8982 302.5536
  Z
  M 366.1318 372.1415
  A 46.74 46.07 46.3 0 0 367.1471 306.5210
  A 46.74 46.07 46.3 0 0 301.5482 304.5585
  A 46.74 46.07 46.3 0 0 300.5329 370.1790
  A 46.74 46.07 46.3 0 0 366.1318 372.1415
  Z
  M 180.0840 347.6156
  A 27.64 26.98 136.1 0 0 218.7080 347.8905
  A 27.64 26.98 136.1 0 0 219.9160 309.2844
  A 27.64 26.98 136.1 0 0 181.2920 309.0095
  A 27.64 26.98 136.1 0 0 180.0840 347.6156
  Z
  M 653.3730 351.2417
  A 27.57 27.02 46.6 0 0 654.0620 312.6449
  A 27.57 27.02 46.6 0 0 615.4870 311.1783
  A 27.57 27.02 46.6 0 0 614.7980 349.7751
  A 27.57 27.02 46.6 0 0 653.3730 351.2417
  Z
  M 459.3183 462.7993
  A 55.55 54.77 46.0 0 0 460.1282 384.7936
  A 55.55 54.77 46.0 0 0 382.1417 382.8807
  A 55.55 54.77 46.0 0 0 381.3318 460.8864
  A 55.55 54.77 46.0 0 0 459.3183 462.7993
  Z
  M 298.99 416.75
  C 295.04 396.92 275.63 384.73 256.02 389.54
  C 224.21 397.34 217.03 438.23 245.52 455.22
  C 273.74 472.04 305.20 447.87 298.99 416.75
  Z
  M 533.31 409.66
  C 527.45 423.13 530.29 440.98 541.13 450.91
  C 554.79 463.43 575.61 463.95 589.62 451.81
  C 605.05 438.43 606.92 416.14 593.28 400.72
  Q 586.50 393.05 576.79 390.19
  C 558.79 384.88 540.70 392.65 533.31 409.66
  Z
  M 372.25 499.41
  A 46.10 46.10 0.0 0 0 326.15 453.31
  A 46.10 46.10 0.0 0 0 280.05 499.41
  A 46.10 46.10 0.0 0 0 326.15 545.51
  A 46.10 46.10 0.0 0 0 372.25 499.41
  Z
  M 545.28 512.73
  A 46.14 46.14 0.0 0 0 499.14 466.59
  A 46.14 46.14 0.0 0 0 453.00 512.73
  A 46.14 46.14 0.0 0 0 499.14 558.87
  A 46.14 46.14 0.0 0 0 545.28 512.73
  Z
  M 219.0848 525.9424
  A 27.62 27.00 43.5 0 0 217.6356 487.3449
  A 27.62 27.00 43.5 0 0 179.0152 487.9176
  A 27.62 27.00 43.5 0 0 180.4644 526.5151
  A 27.62 27.00 43.5 0 0 219.0848 525.9424
  Z
  M 653.4916 492.2782
  A 27.62 26.97 -43.9 0 0 614.8890 491.9967
  A 27.62 26.97 -43.9 0 0 613.6884 530.5818
  A 27.62 26.97 -43.9 0 0 652.2910 530.8633
  A 27.62 26.97 -43.9 0 0 653.4916 492.2782
  Z
  M 412.58 541.04
  C 378.20 537.02 358.81 576.65 382.24 601.55
  C 402.47 623.04 436.59 612.55 443.11 584.64
  C 448.10 563.33 434.64 543.62 412.58 541.04
  Z
  M 244.32 614.43
  C 275.91 626.36 303.81 590.17 287.75 562.03
  C 278.98 546.66 258.93 540.56 242.52 547.04
  C 211.28 559.37 214.15 603.04 244.32 614.43
  Z
  M 566.06 548.87
  C 550.51 554.94 541.69 572.40 544.53 588.76
  C 548.78 613.33 575.14 626.36 597.31 614.00
  C 617.95 602.49 622.92 575.17 606.29 557.96
  C 595.64 546.93 580.19 543.35 566.06 548.87
  Z
  M 159.32 573.09
  A 17.75 17.75 0.0 0 0 141.57 555.34
  A 17.75 17.75 0.0 0 0 123.82 573.09
  A 17.75 17.75 0.0 0 0 141.57 590.84
  A 17.75 17.75 0.0 0 0 159.32 573.09
  Z
  M 708.82 576.27
  A 17.73 17.73 0.0 0 0 691.09 558.54
  A 17.73 17.73 0.0 0 0 673.36 576.27
  A 17.73 17.73 0.0 0 0 691.09 594.00
  A 17.73 17.73 0.0 0 0 708.82 576.27
  Z
  M 347.1585 653.3872
  A 27.66 26.95 44.5 0 0 346.3195 614.7779
  A 27.66 26.95 44.5 0 0 307.7015 614.6128
  A 27.66 26.95 44.5 0 0 308.5405 653.2221
  A 27.66 26.95 44.5 0 0 347.1585 653.3872
  Z
  M 488.6356 660.7621
  A 27.61 26.99 130.7 0 0 527.1020 657.4301
  A 27.61 26.99 130.7 0 0 524.6444 618.8979
  A 27.61 26.99 130.7 0 0 486.1780 622.2299
  A 27.61 26.99 130.7 0 0 488.6356 660.7621
  Z
  M 110.14 628.45
  A 14.46 14.46 0.0 0 0 95.68 613.99
  A 14.46 14.46 0.0 0 0 81.22 628.45
  A 14.46 14.46 0.0 0 0 95.68 642.91
  A 14.46 14.46 0.0 0 0 110.14 628.45
  Z
  M 753.94 633.69
  A 14.46 14.46 0.0 0 0 739.48 619.23
  A 14.46 14.46 0.0 0 0 725.02 633.69
  A 14.46 14.46 0.0 0 0 739.48 648.15
  A 14.46 14.46 0.0 0 0 753.94 633.69
  Z
  M 203.0373 672.5236
  A 27.63 26.99 43.0 0 0 201.2371 633.9408
  A 27.63 26.99 43.0 0 0 162.6227 634.8364
  A 27.63 26.99 43.0 0 0 164.4229 673.4192
  A 27.63 26.99 43.0 0 0 203.0373 672.5236
  Z
  M 673.9396 637.7097
  A 27.63 26.95 -41.7 0 0 635.3820 635.9681
  A 27.63 26.95 -41.7 0 0 632.6804 674.4703
  A 27.63 26.95 -41.7 0 0 671.2380 676.2119
  A 27.63 26.95 -41.7 0 0 673.9396 637.7097
  Z
  M 280.34 691.44
  A 17.76 17.76 0.0 0 0 262.58 673.68
  A 17.76 17.76 0.0 0 0 244.82 691.44
  A 17.76 17.76 0.0 0 0 262.58 709.20
  A 17.76 17.76 0.0 0 0 280.34 691.44
  Z
  M 590.55 697.38
  A 17.74 17.74 0.0 0 0 572.81 679.64
  A 17.74 17.74 0.0 0 0 555.07 697.38
  A 17.74 17.74 0.0 0 0 572.81 715.12
  A 17.74 17.74 0.0 0 0 590.55 697.38
  Z
  M 729.6493 727.7598
  A 17.70 17.06 44.2 0 0 728.8536 703.1895
  A 17.70 17.06 44.2 0 0 704.2707 703.0802
  A 17.70 17.06 44.2 0 0 705.0664 727.6505
  A 17.70 17.06 44.2 0 0 729.6493 727.7598
  Z
  M 111.1471 730.0592
  A 17.73 17.04 134.3 0 0 135.7254 729.2710
  A 17.73 17.04 134.3 0 0 135.9129 704.6808
  A 17.73 17.04 134.3 0 0 111.3346 705.4690
  A 17.73 17.04 134.3 0 0 111.1471 730.0592
  Z
  M 219.67 739.87
  A 14.45 14.45 0.0 0 0 205.22 725.42
  A 14.45 14.45 0.0 0 0 190.77 739.87
  A 14.45 14.45 0.0 0 0 205.22 754.32
  A 14.45 14.45 0.0 0 0 219.67 739.87
  Z
  M 642.57 743.27
  A 14.45 14.45 0.0 0 0 628.12 728.82
  A 14.45 14.45 0.0 0 0 613.67 743.27
  A 14.45 14.45 0.0 0 0 628.12 757.72
  A 14.45 14.45 0.0 0 0 642.57 743.27
  Z" fill="#000000"></path>
<circle r="14.46" cy="95.71" cx="211.00" fill="#ffffff"></circle>
<circle r="14.44" cy="99.19" cx="633.84" fill="#ffffff"></circle>
<ellipse ry="17.04" rx="17.71" transform="translate(128.85,116.49) rotate(45.8)" cy="0.00" cx="0.00" fill="#ffffff"></ellipse>
<ellipse ry="17.02" rx="17.72" transform="translate(722.10,128.87) rotate(-44.0)" cy="0.00" cx="0.00" fill="#ffffff"></ellipse>
<circle r="17.74" cy="143.96" cx="577.57" fill="#ffffff"></circle>
<circle r="17.74" cy="145.30" cx="267.37" fill="#ffffff"></circle>
<ellipse ry="26.97" rx="27.59" transform="translate(186.80,181.38) rotate(-41.0)" cy="0.00" cx="0.00" fill="#ffffff"></ellipse>
<ellipse ry="27.01" rx="27.69" transform="translate(657.21,186.89) rotate(49.2)" cy="0.00" cx="0.00" fill="#ffffff"></ellipse>
<ellipse ry="26.98" rx="27.65" transform="translate(510.29,200.14) rotate(46.6)" cy="0.00" cx="0.00" fill="#ffffff"></ellipse>
<ellipse ry="26.95" rx="27.68" transform="translate(331.00,204.15) rotate(133.5)" cy="0.00" cx="0.00" fill="#ffffff"></ellipse>
<circle r="14.45" cy="204.79" cx="99.20" fill="#ffffff"></circle>
<circle r="14.44" cy="211.06" cx="742.87" fill="#ffffff"></circle>
<path d="M 276.56 224.92
  C 298.46 237.16 301.65 270.16 280.81 285.09
  C 258.93 300.76 227.12 289.36 223.03 261.76
  C 219.77 239.79 238.37 218.15 261.15 220.08
  Q 269.10 220.75 276.56 224.92
  Z" fill="#ffffff"></path>
<path d="M 597.07 226.16
  C 616.77 234.99 624.82 258.98 613.42 277.45
  C 596.14 305.45 551.90 298.83 547.18 264.72
  Q 544.37 244.46 558.89 231.14
  C 569.10 221.78 584.63 220.59 597.07 226.16
  Z" fill="#ffffff"></path>
<path d="M 416.46 238.47
  C 439.43 236.42 457.97 256.41 455.52 278.80
  C 452.93 302.44 429.36 316.10 407.09 308.10
  C 370.69 295.03 379.32 241.79 416.46 238.47
  Z" fill="#ffffff"></path>
<circle r="17.75" cy="261.11" cx="143.90" fill="#ffffff"></circle>
<circle r="17.73" cy="267.46" cx="693.30" fill="#ffffff"></circle>
<ellipse ry="45.99" rx="46.71" transform="translate(500.35,333.99) rotate(-42.3)" cy="0.00" cx="0.00" fill="#ffffff"></ellipse>
<ellipse ry="46.07" rx="46.74" transform="translate(333.84,338.35) rotate(46.3)" cy="0.00" cx="0.00" fill="#ffffff"></ellipse>
<ellipse ry="26.98" rx="27.64" transform="translate(200.00,328.45) rotate(136.1)" cy="0.00" cx="0.00" fill="#ffffff"></ellipse>
<ellipse ry="27.02" rx="27.57" transform="translate(634.43,331.21) rotate(46.6)" cy="0.00" cx="0.00" fill="#ffffff"></ellipse>
<ellipse ry="54.77" rx="55.55" transform="translate(420.73,422.84) rotate(46.0)" cy="0.00" cx="0.00" fill="#ffffff"></ellipse>
<path d="M 256.02 389.54
  C 275.63 384.73 295.04 396.92 298.99 416.75
  C 305.20 447.87 273.74 472.04 245.52 455.22
  C 217.03 438.23 224.21 397.34 256.02 389.54
  Z" fill="#ffffff"></path>
<path d="M 533.31 409.66
  C 540.70 392.65 558.79 384.88 576.79 390.19
  Q 586.50 393.05 593.28 400.72
  C 606.92 416.14 605.05 438.43 589.62 451.81
  C 575.61 463.95 554.79 463.43 541.13 450.91
  C 530.29 440.98 527.45 423.13 533.31 409.66
  Z" fill="#ffffff"></path>
<circle r="46.10" cy="499.41" cx="326.15" fill="#ffffff"></circle>
<circle r="46.14" cy="512.73" cx="499.14" fill="#ffffff"></circle>
<ellipse ry="27.00" rx="27.62" transform="translate(199.05,506.93) rotate(43.5)" cy="0.00" cx="0.00" fill="#ffffff"></ellipse>
<ellipse ry="26.97" rx="27.62" transform="translate(633.59,511.43) rotate(-43.9)" cy="0.00" cx="0.00" fill="#ffffff"></ellipse>
<path d="M 382.24 601.55
  C 358.81 576.65 378.20 537.02 412.58 541.04
  C 434.64 543.62 448.10 563.33 443.11 584.64
  C 436.59 612.55 402.47 623.04 382.24 601.55
  Z" fill="#ffffff"></path>
<path d="M 287.75 562.03
  C 303.81 590.17 275.91 626.36 244.32 614.43
  C 214.15 603.04 211.28 559.37 242.52 547.04
  C 258.93 540.56 278.98 546.66 287.75 562.03
  Z" fill="#ffffff"></path>
<path d="M 544.53 588.76
  C 541.69 572.40 550.51 554.94 566.06 548.87
  C 580.19 543.35 595.64 546.93 606.29 557.96
  C 622.92 575.17 617.95 602.49 597.31 614.00
  C 575.14 626.36 548.78 613.33 544.53 588.76
  Z" fill="#ffffff"></path>
<circle r="17.75" cy="573.09" cx="141.57" fill="#ffffff"></circle>
<circle r="17.73" cy="576.27" cx="691.09" fill="#ffffff"></circle>
<ellipse ry="26.95" rx="27.66" transform="translate(327.43,634.00) rotate(44.5)" cy="0.00" cx="0.00" fill="#ffffff"></ellipse>
<ellipse ry="26.99" rx="27.61" transform="translate(506.64,639.83) rotate(130.7)" cy="0.00" cx="0.00" fill="#ffffff"></ellipse>
<circle r="14.46" cy="628.45" cx="95.68" fill="#ffffff"></circle>
<circle r="14.46" cy="633.69" cx="739.48" fill="#ffffff"></circle>
<ellipse ry="26.99" rx="27.63" transform="translate(182.83,653.68) rotate(43.0)" cy="0.00" cx="0.00" fill="#ffffff"></ellipse>
<ellipse ry="26.95" rx="27.63" transform="translate(653.31,656.09) rotate(-41.7)" cy="0.00" cx="0.00" fill="#ffffff"></ellipse>
<circle r="17.76" cy="691.44" cx="262.58" fill="#ffffff"></circle>
<circle r="17.74" cy="697.38" cx="572.81" fill="#ffffff"></circle>
<ellipse ry="17.06" rx="17.70" transform="translate(716.96,715.42) rotate(44.2)" cy="0.00" cx="0.00" fill="#ffffff"></ellipse>
<ellipse ry="17.04" rx="17.73" transform="translate(123.53,717.37) rotate(134.3)" cy="0.00" cx="0.00" fill="#ffffff"></ellipse>
<circle r="14.45" cy="739.87" cx="205.22" fill="#ffffff"></circle>
<circle r="14.45" cy="743.27" cx="628.12" fill="#ffffff"></circle>
</svg>
