<svg viewBox="0.00 0.00 256.00 256.00" version="1.1" xmlns="http://www.w3.org/2000/svg">
<g stroke-linecap="butt" fill="none" stroke-width="2.00">
<path d="M 119.89 0.00
  L 111.97 0.38
  Q 111.87 0.38 111.87 0.47
  Q 111.87 0.62 111.88 0.77
  A 0.01 0.01 0.0 0 0 111.90 0.78
  Q 112.56 0.01 112.86 0.75
  Q 113.01 1.10 113.14 0.75
  Q 113.19 0.62 113.25 0.50
  A 0.28 0.28 0.0 0 1 113.75 0.50
  Q 113.81 0.63 113.86 0.75
  Q 114.00 1.12 114.14 0.75
  Q 114.19 0.62 114.25 0.50
  Q 114.31 0.38 114.45 0.38
  L 119.46 0.38
  Q 119.51 0.38 119.55 0.41
  Q 119.67 0.50 119.78 0.61
  Q 120.00 0.84 120.23 0.62
  Q 120.57 0.29 121.06 0.32
  Q 121.31 0.34 121.79 0.66
  Q 122.61 1.23 123.48 0.44
  Q 123.54 0.38 123.60 0.44
  Q 123.72 0.55 123.84 0.69
  Q 124.00 0.87 124.13 0.67
  Q 124.30 0.41 124.60 0.38
  Q 124.75 0.36 124.87 0.43
  Q 125.07 0.56 125.00 0.77
  A 0.13 0.13 0.0 0 0 125.21 0.92
  Q 125.37 0.79 125.54 0.83
  Q 125.91 0.92 125.62 1.17
  Q 125.50 1.28 125.44 1.41
  A 0.44 0.43 -68.2 0 0 125.70 2.02
  Q 126.52 2.25 127.38 2.08
  Q 127.88 1.98 127.88 1.48
  L 127.88 0.93
  Q 127.88 0.23 128.57 0.28
  L 134.90 0.68
  A 0.34 0.31 21.2 0 0 135.16 0.58
  Q 135.35 0.40 135.60 0.36
  Q 135.90 0.31 135.88 0.61
  Q 135.87 0.75 135.88 0.87
  Q 135.90 1.12 136.17 0.61
  Q 136.25 0.46 136.47 0.38
  A 0.22 0.21 71.2 0 1 136.74 0.52
  L 137.08 1.51
  Q 137.27 2.05 137.70 1.68
  Q 138.39 1.10 138.97 2.33
  Q 139.19 2.79 138.82 3.14
  Q 138.50 3.44 138.06 3.59
  Q 137.52 3.77 137.09 3.41
  Q 136.54 2.97 135.83 3.15
  Q 135.35 3.27 135.11 3.70
  Q 134.45 4.85 132.90 4.78
  Q 132.47 4.76 132.19 4.43
  Q 132.08 4.30 131.95 4.22
  Q 131.59 3.99 131.22 4.22
  L 128.46 5.98
  Q 128.12 6.20 128.12 6.60
  L 128.12 7.15
  Q 128.12 7.63 127.69 7.86
  Q 126.87 8.28 126.17 7.84
  Q 125.88 7.65 125.88 7.30
  L 125.88 6.82
  A 0.25 0.24 53.1 0 0 125.40 6.75
  Q 125.05 8.03 125.32 9.25
  Q 125.46 9.88 124.82 9.89
  Q 124.53 9.90 124.26 9.75
  Q 123.84 9.52 123.87 9.04
  Q 123.88 8.86 123.88 8.69
  A 0.43 0.43 0.0 0 0 123.26 8.33
  Q 122.22 8.85 121.04 8.60
  Q 120.65 8.52 120.63 8.92
  Q 120.62 9.09 120.61 9.28
  Q 120.60 9.69 121.00 9.63
  Q 121.94 9.50 122.71 9.99
  A 0.45 0.44 41.3 0 1 122.76 10.71
  Q 120.92 12.24 118.76 11.26
  Q 118.14 10.98 118.12 11.66
  Q 118.11 12.19 117.45 12.13
  Q 116.98 12.10 116.90 12.56
  Q 116.57 14.42 114.52 13.78
  Q 113.77 13.54 114.41 13.09
  Q 114.66 12.92 114.66 12.66
  Q 114.66 12.13 114.40 12.60
  Q 114.13 13.11 113.46 13.17
  A 0.34 0.34 0.0 0 0 113.25 13.75
  L 113.75 14.25
  A 0.36 0.36 0.0 0 1 113.49 14.87
  Q 112.61 14.85 111.88 15.35
  Q 111.52 15.59 111.14 15.39
  Q 110.26 14.94 109.29 15.15
  Q 108.92 15.23 108.77 15.48
  Q 108.59 15.79 108.67 16.19
  Q 108.74 16.59 108.37 16.41
  Q 108.16 16.31 107.97 16.12
  Q 107.60 15.72 107.24 16.13
  L 105.83 17.74
  Q 105.44 18.18 105.11 17.70
  Q 104.83 17.29 104.88 16.81
  Q 104.98 15.89 104.31 16.52
  Q 103.52 17.27 104.08 18.46
  Q 104.15 18.62 104.02 18.73
  Q 103.70 19.00 103.25 18.79
  A 0.08 0.07 11.7 0 1 103.20 18.72
  L 103.07 17.24
  Q 102.99 16.37 102.43 17.04
  L 100.61 19.22
  A 0.38 0.38 0.0 0 1 99.96 19.11
  Q 99.69 18.38 98.81 18.62
  Q 98.33 18.75 98.16 19.21
  Q 97.20 21.87 94.21 21.03
  A 0.76 0.76 0.0 0 0 93.35 21.37
  Q 92.81 22.25 91.81 22.13
  Q 91.52 22.09 91.27 22.23
  L 90.76 22.50
  Q 90.41 22.69 90.04 22.54
  Q 89.02 22.10 88.01 22.66
  Q 87.94 22.69 88.00 22.75
  L 88.27 23.02
  A 0.66 0.66 0.0 0 1 88.21 24.00
  L 85.51 26.19
  A 0.39 0.39 0.0 0 1 84.87 25.87
  Q 84.88 25.66 84.89 25.46
  A 0.13 0.13 0.0 0 0 84.70 25.34
  Q 84.33 25.53 84.37 25.82
  A 0.07 0.06 5.7 0 0 84.43 25.88
  Q 84.93 25.92 84.87 26.47
  A 0.71 0.70 -87.7 0 1 84.18 27.11
  Q 83.11 27.12 82.55 28.00
  Q 82.31 28.37 81.87 28.37
  Q 81.69 28.37 81.50 28.37
  Q 81.14 28.37 81.12 28.74
  Q 81.08 29.67 80.25 29.90
  A 0.89 0.89 0.0 0 1 79.37 29.63
  Q 77.98 28.07 76.49 29.26
  Q 76.07 29.60 76.13 30.14
  Q 76.19 30.57 75.87 30.88
  Q 75.49 31.24 75.12 30.87
  L 74.78 30.52
  A 0.35 0.35 0.0 0 0 74.50 30.43
  Q 74.00 30.49 74.15 30.82
  A 0.32 0.32 0.0 0 1 73.85 31.27
  Q 72.95 31.26 72.06 30.88
  Q 71.79 30.77 71.49 30.79
  Q 70.44 30.88 70.25 31.67
  A 0.62 0.62 0.0 0 1 69.56 32.14
  Q 68.53 31.99 67.59 32.34
  A 0.15 0.14 -61.4 0 0 67.67 32.62
  Q 68.65 32.38 69.01 33.29
  Q 69.22 33.81 68.69 34.00
  L 67.79 34.33
  Q 67.30 34.51 67.11 34.02
  Q 66.48 32.42 64.59 33.33
  Q 64.24 33.50 64.51 33.77
  L 64.85 34.10
  A 0.45 0.45 0.0 0 1 64.53 34.87
  L 62.98 34.87
  Q 62.48 34.87 62.32 35.34
  Q 61.97 36.40 60.86 36.25
  Q 60.44 36.20 60.36 36.61
  Q 60.17 37.67 61.23 37.86
  Q 61.88 37.98 61.88 38.64
  Q 61.87 39.24 61.47 39.67
  Q 61.27 39.88 60.97 39.91
  Q 60.63 39.95 60.40 39.80
  Q 60.09 39.60 59.76 39.74
  Q 58.71 40.19 57.65 40.11
  Q 57.09 40.08 56.95 40.62
  Q 56.76 41.34 56.00 40.99
  Q 55.58 40.80 55.25 41.11
  Q 53.40 42.86 50.98 42.06
  Q 50.55 41.92 50.25 42.26
  Q 49.70 42.86 48.90 43.12
  Q 48.43 43.27 47.96 43.13
  Q 47.54 43.00 47.15 43.19
  Q 46.39 43.57 46.25 43.60
  Q 43.90 44.19 41.71 45.21
  C 40.14 45.95 38.88 45.75 37.25 45.69
  Q 36.87 45.67 36.87 46.04
  L 36.87 46.47
  Q 36.86 46.96 36.43 46.74
  Q 35.19 46.09 33.80 46.66
  Q 33.30 46.86 33.37 47.40
  Q 33.41 47.73 33.27 47.95
  Q 33.04 48.32 33.41 48.56
  Q 34.16 49.05 34.73 49.78
  Q 34.98 50.11 34.57 50.09
  Q 32.91 50.00 31.89 51.44
  Q 31.64 51.78 31.22 51.86
  Q 30.88 51.92 30.74 52.17
  A 1.67 0.17 -61.2 0 1 30.20 52.95
  L 29.15 54.06
  Q 28.79 54.43 28.88 54.94
  Q 29.19 56.81 27.24 57.23
  Q 23.52 58.02 20.66 58.76
  Q 18.92 59.21 14.34 61.09
  Q 7.52 63.89 0.00 64.00" stroke="#4e2877"></path>
<path d="M 256.00 38.48
  Q 255.30 37.79 254.82 39.62
  Q 254.72 40.04 254.47 39.68
  Q 254.37 39.53 254.40 39.34
  Q 254.47 38.92 254.05 38.85
  Q 253.49 38.76 253.39 39.32
  Q 253.31 39.81 252.81 39.87
  Q 251.82 39.99 251.69 40.92
  Q 251.62 41.48 251.32 40.99
  Q 250.90 40.31 250.75 39.52
  A 0.39 0.39 0.0 0 0 249.99 39.52
  Q 249.65 41.13 247.99 40.60
  Q 247.55 40.46 247.78 40.07
  Q 247.93 39.82 247.89 39.70
  Q 247.43 38.26 247.16 39.74
  Q 247.15 39.79 247.19 40.10
  Q 247.21 40.30 247.02 40.25
  L 246.47 40.12
  Q 246.29 40.08 246.25 40.26
  Q 246.09 41.08 245.37 41.10
  Q 245.06 41.11 244.68 40.85
  Q 243.21 39.87 241.69 38.97
  Q 241.28 38.73 241.07 38.29
  Q 240.75 37.63 241.24 37.36
  Q 241.74 37.09 241.98 37.60
  L 242.20 38.06
  A 0.38 0.37 -58.2 0 0 242.91 37.89
  Q 242.90 37.64 243.03 37.36
  Q 243.24 36.90 242.73 36.87
  Q 242.25 36.84 241.98 36.49
  Q 241.54 35.94 241.10 36.49
  Q 240.85 36.81 240.86 37.19
  A 0.38 0.38 0.0 0 1 240.15 37.40
  Q 239.98 37.12 239.75 37.11
  A 0.41 0.09 5.6 0 0 239.40 37.15
  Q 238.99 37.67 238.41 38.02
  Q 237.63 38.49 237.63 37.58
  L 237.63 36.28
  Q 237.63 36.17 237.54 36.22
  Q 237.39 36.30 237.23 36.37
  A 0.19 0.18 62.7 0 0 237.15 36.64
  Q 237.68 37.42 237.12 38.12
  Q 236.74 38.59 236.25 38.24
  Q 235.80 37.91 235.14 38.27
  Q 234.99 38.35 234.95 38.52
  Q 234.91 38.71 234.97 38.90
  Q 235.09 39.28 234.87 39.61
  Q 234.76 39.78 234.55 39.85
  A 0.32 0.32 0.0 0 1 234.13 39.52
  Q 234.18 39.09 233.89 38.74
  Q 233.47 38.25 233.30 38.87
  Q 233.02 39.91 231.97 39.88
  Q 231.54 39.87 231.19 40.12
  L 230.87 40.35
  Q 230.47 40.64 230.17 40.24
  L 229.61 39.49
  Q 229.46 39.29 229.34 39.52
  L 228.70 40.80
  Q 228.63 40.93 228.50 40.87
  Q 228.38 40.81 228.25 40.76
  Q 227.63 40.57 227.52 40.59
  Q 226.02 40.80 224.65 41.35
  Q 224.45 41.43 224.24 41.36
  Q 224.08 41.31 223.95 41.20
  A 0.41 0.40 41.8 0 0 223.40 41.23
  Q 223.08 41.57 223.11 41.94
  Q 223.13 42.13 222.96 42.20
  L 219.90 43.60
  Q 219.53 43.77 219.13 43.67
  Q 218.48 43.51 217.80 43.61
  Q 217.62 43.63 217.61 43.82
  Q 217.60 44.13 217.70 44.35
  A 0.23 0.22 -81.2 0 1 217.35 44.61
  Q 217.12 44.41 217.13 44.14
  A 0.40 0.40 0.0 0 0 216.35 44.02
  Q 215.63 46.59 212.63 45.98
  A 1.60 1.58 -64.3 0 0 211.09 46.53
  Q 210.38 47.38 209.35 47.15
  Q 208.88 47.05 208.48 47.34
  Q 207.58 48.00 206.40 48.12
  Q 205.97 48.17 205.74 48.53
  Q 205.06 49.63 203.85 48.87
  A 0.48 0.48 0.0 0 0 203.13 49.14
  Q 202.84 50.11 201.75 49.85
  Q 201.67 49.83 201.00 50.11
  Q 200.76 50.21 200.75 50.49
  Q 200.74 50.81 199.89 50.46
  Q 199.69 50.37 199.50 50.40
  Q 199.09 50.46 199.17 50.86
  Q 199.23 51.15 199.17 51.39
  Q 199.09 51.69 198.68 51.90
  Q 197.30 52.59 194.77 53.39
  Q 193.09 53.91 191.79 53.32
  Q 191.31 53.10 190.83 53.30
  Q 190.32 53.51 189.77 53.50
  Q 189.60 53.50 189.74 53.59
  Q 189.85 53.67 189.98 53.71
  Q 190.11 53.75 190.15 53.87
  Q 190.35 54.50 189.88 54.84
  Q 189.52 55.10 189.30 54.71
  Q 189.19 54.50 189.02 54.41
  Q 188.57 54.18 188.30 54.60
  Q 187.23 56.29 185.66 54.40
  A 0.33 0.33 0.0 0 0 185.09 54.72
  Q 185.20 55.05 184.95 55.30
  Q 184.84 55.40 184.87 55.55
  Q 184.95 55.94 185.45 55.89
  A 0.32 0.31 1.4 0 1 185.79 56.24
  Q 185.74 56.59 185.43 57.19" stroke="#582877"></path>
<path d="M 185.43 57.19
  C 172.40 47.09 152.98 43.67 139.19 54.38" stroke="#967aaa"></path>
<path d="M 139.19 54.38
  C 132.80 59.58 129.62 66.82 128.07 74.79" stroke="#9a81ae"></path>
<path d="M 128.07 74.79
  Q 127.78 74.21 127.89 73.52
  A 0.13 0.13 0.0 0 0 127.76 73.37
  Q 127.63 73.37 127.50 73.38
  Q 127.41 73.38 127.39 73.46
  L 126.08 77.76
  A 0.23 0.23 0.0 0 1 125.63 77.70
  L 125.63 77.37
  A 0.31 0.30 -11.4 0 0 125.21 77.10
  Q 124.04 77.61 123.32 76.51
  Q 123.16 76.27 123.00 76.50
  Q 122.32 77.50 122.08 78.66
  Q 121.93 79.41 121.43 78.84
  Q 120.52 77.81 119.38 75.75
  Q 118.96 74.99 117.78 74.79
  Q 117.21 74.69 116.97 74.16
  L 116.77 73.71
  Q 116.58 73.31 116.14 73.27
  C 114.20 73.12 112.88 72.92 110.86 73.61
  Q 108.80 74.31 106.59 73.87
  Q 106.06 73.77 105.85 74.25
  Q 105.62 74.76 105.18 74.57
  Q 104.73 74.37 104.29 74.58
  C 102.39 75.47 100.33 74.91 98.03 75.96
  Q 97.58 76.17 97.08 76.10
  Q 95.37 75.86 94.01 76.13
  C 89.76 76.96 85.60 77.39 81.73 78.36
  Q 72.24 80.73 69.00 80.63
  C 67.06 80.57 65.63 81.09 64.36 81.18
  Q 57.58 81.65 53.25 83.01
  C 49.90 84.06 46.85 84.38 43.65 85.19
  Q 41.25 85.79 37.24 86.45
  Q 31.04 87.47 24.83 88.65
  Q 24.37 88.74 24.07 89.11
  L 23.52 89.78
  Q 23.25 90.12 22.82 90.13
  Q 22.56 90.14 22.42 89.95
  Q 22.06 89.47 21.47 89.60
  L 1.82 93.80
  Q 1.15 93.94 1.15 94.63
  L 1.15 95.25
  Q 1.15 95.85 0.55 95.91
  L 0.00 95.96" stroke="#582877"></path>
<path d="M 256.00 90.12
  Q 255.65 89.92 255.63 89.44
  Q 255.61 89.07 255.36 88.80
  Q 254.89 88.27 254.70 87.63
  Q 254.63 87.38 254.38 87.37
  Q 253.25 87.31 253.11 87.64
  A 2.47 2.25 40.2 0 1 249.04 87.79
  Q 248.12 86.55 246.48 87.45
  Q 246.10 87.66 245.86 88.02
  Q 245.51 88.57 244.87 88.81
  A 0.68 0.68 0.0 0 1 244.16 88.66
  L 243.74 88.24
  A 0.45 0.45 0.0 0 0 242.98 88.49
  Q 242.89 89.07 242.50 89.51
  A 0.52 0.51 44.7 0 1 241.73 89.51
  Q 241.16 88.87 240.40 88.99
  Q 240.27 89.01 240.20 89.12
  Q 240.09 89.29 240.01 89.47
  A 0.54 0.53 25.9 0 1 239.27 89.72
  Q 237.88 88.99 236.86 89.83
  Q 236.32 90.27 235.96 89.68
  Q 235.64 89.15 235.15 89.55
  Q 235.05 89.63 234.95 89.57
  Q 234.84 89.49 234.74 89.40
  Q 234.55 89.22 234.36 89.40
  Q 232.47 91.30 229.85 91.06
  Q 229.45 91.02 229.09 91.21
  Q 228.53 91.50 227.93 91.32
  Q 227.40 91.16 226.85 91.29
  L 220.52 92.78
  A 0.27 0.27 0.0 0 1 220.36 92.27
  Q 220.97 92.02 220.62 91.71
  Q 220.37 91.48 220.37 91.82
  L 220.37 92.25
  Q 220.37 92.62 220.00 92.62
  L 217.96 92.62
  Q 217.49 92.62 217.13 92.91
  L 214.31 95.18
  Q 213.92 95.50 213.93 95.99
  Q 213.93 96.83 213.51 97.63
  Q 213.32 97.99 213.43 98.38
  Q 213.85 99.77 212.85 100.89
  Q 212.43 101.37 212.23 101.96
  L 211.92 102.87
  A 0.28 0.28 0.0 0 1 211.38 102.76
  Q 211.51 100.47 210.61 98.31
  A 0.38 0.38 0.0 0 1 210.87 97.79
  Q 211.33 97.68 210.88 97.22
  Q 210.68 97.01 210.59 97.29
  L 209.11 101.77
  Q 208.92 102.36 208.73 101.77
  C 207.94 99.21 208.53 90.97 204.95 89.87
  Q 204.49 89.72 204.35 89.26
  Q 203.72 87.23 202.57 85.88" stroke="#672674"></path>
<path d="M 202.57 85.88
  Q 199.78 69.50 187.18 58.45" stroke="#946ba3"></path>
<path d="M 187.18 58.45
  L 185.43 57.19" stroke="#9b7aab"></path>
<path d="M 187.18 58.45
  L 186.36 60.04
  Q 186.14 60.48 186.46 60.86
  Q 189.56 64.47 191.41 68.85
  C 191.94 70.12 192.98 71.11 193.33 72.70
  C 194.04 75.90 195.34 79.18 195.66 82.18
  Q 195.98 85.13 195.87 88.07
  Q 195.87 88.10 195.88 88.07
  Q 196.03 87.66 195.80 87.44
  Q 195.42 87.07 195.32 87.60
  Q 194.07 94.76 192.97 96.48
  C 191.80 98.33 191.09 100.35 189.72 101.97
  Q 187.47 104.62 185.05 107.11
  C 183.89 108.31 182.60 109.03 181.22 109.92
  C 180.36 110.48 179.11 110.58 178.38 111.70
  Q 178.12 112.11 177.67 112.32
  Q 169.77 115.92 161.39 118.17
  Q 153.31 120.35 145.20 122.45
  C 144.45 122.64 143.58 122.53 142.96 122.81
  Q 140.26 124.04 136.24 126.24
  Q 135.15 126.84 134.48 127.53
  Q 134.16 127.86 133.70 127.88
  C 131.76 127.97 131.80 129.61 130.25 130.29
  Q 129.81 130.47 129.45 130.77
  L 122.66 136.46
  Q 122.39 136.68 122.05 136.63
  Q 121.53 136.55 121.08 136.71
  Q 120.81 136.81 120.89 137.08
  Q 120.95 137.31 120.90 137.45
  Q 120.84 137.61 120.55 137.65
  Q 119.91 137.74 119.34 137.56
  Q 119.03 137.46 119.26 137.24
  Q 119.44 137.06 119.69 137.11
  A 0.35 0.34 -72.8 0 0 120.08 136.90
  Q 120.23 136.51 119.98 136.23
  Q 119.84 136.08 119.63 136.05
  Q 118.46 135.90 117.88 136.62
  Q 117.39 137.25 117.13 136.49
  Q 116.91 135.83 116.45 135.27
  Q 116.18 134.94 115.76 134.88
  Q 115.39 134.83 115.17 135.06
  Q 114.99 135.25 114.79 135.09
  L 114.11 134.59
  A 0.29 0.28 49.1 0 1 114.14 134.11
  C 115.19 133.52 115.90 132.84 117.01 132.28
  Q 119.46 131.02 120.45 128.33
  Q 120.49 128.22 120.56 128.17
  Q 120.67 128.10 120.81 128.11
  A 0.55 0.54 21.5 0 0 121.24 127.93
  Q 123.05 125.89 124.87 123.88
  Q 126.16 122.44 125.20 120.61
  Q 124.96 120.15 124.44 120.12
  Q 124.06 120.10 123.88 120.42
  Q 123.65 120.82 123.22 120.99
  Q 122.36 121.33 122.47 120.76" stroke="#d2bed6"></path>
<path d="M 122.47 120.76
  C 130.61 108.90 125.40 94.30 127.64 78.16" stroke="#9b7aab"></path>
<path d="M 127.64 78.16
  Q 128.22 77.72 128.69 76.97
  Q 129.05 76.41 129.35 77.00
  Q 129.97 78.20 129.88 79.53
  Q 129.84 80.05 130.10 80.49
  Q 131.37 82.67 131.30 85.26
  Q 131.29 85.89 131.68 86.46
  A 1.83 1.80 25.2 0 1 131.98 87.27
  Q 132.53 91.69 133.99 95.91
  Q 134.01 95.99 133.94 96.01
  Q 133.90 96.02 133.86 96.04
  Q 133.71 96.10 133.80 96.21
  Q 134.76 97.35 135.07 98.82
  Q 135.15 99.22 135.34 99.58
  L 137.21 103.10
  A 1.66 1.66 0.0 0 0 139.57 103.72
  Q 140.16 103.34 140.87 103.36
  Q 141.30 103.38 141.64 103.12
  Q 143.17 101.96 145.08 101.83
  A 0.77 0.73 22.3 0 0 145.47 101.68
  Q 146.74 100.72 150.49 99.59
  Q 151.64 99.24 155.30 96.78
  Q 155.61 96.57 155.49 96.22
  L 155.34 95.81
  Q 155.16 95.32 155.59 95.01
  L 158.74 92.80
  Q 159.06 92.57 159.25 92.22
  Q 159.45 91.85 159.73 91.85
  Q 159.98 91.85 160.05 91.61
  Q 160.18 91.15 160.57 91.14
  Q 160.99 91.13 161.26 90.80
  Q 162.92 88.81 164.78 87.07
  Q 166.67 85.31 167.89 83.47
  Q 169.21 81.46 170.64 79.52
  C 171.14 78.83 172.04 78.50 172.13 77.28
  A 1.12 1.10 71.1 0 1 172.49 76.53
  Q 173.03 76.02 173.20 75.26
  Q 173.31 74.72 173.62 74.27
  C 175.07 72.15 176.08 69.29 176.76 67.26
  C 177.61 64.73 176.17 62.66 175.18 60.61
  Q 174.31 58.80 172.88 57.72
  Q 162.73 50.08 150.01 51.40
  Q 148.07 51.60 144.62 52.86
  Q 142.00 53.81 139.19 54.38" stroke="#ded3e2"></path>
<path d="M 127.64 78.16
  L 128.07 74.79" stroke="#a080af"></path>
<path d="M 202.57 85.88
  Q 203.42 93.77 201.37 100.45" stroke="#9d6a9f"></path>
<path d="M 201.37 100.45
  C 194.06 120.86 168.76 121.62 151.25 125.29
  C 134.88 128.73 130.99 136.57 130.15 152.73" stroke="#926797"></path>
<path d="M 130.15 152.73
  C 129.27 167.47 129.12 188.54 118.25 200.06
  C 100.84 218.51 72.40 204.25 60.55 187.66" stroke="#9d6a9f"></path>
<path d="M 60.55 187.66
  C 52.93 176.68 50.68 161.75 58.56 150.80
  C 71.24 133.15 96.42 134.12 114.85 126.22" stroke="#996ba4"></path>
<path d="M 114.85 126.22
  Q 119.19 124.27 122.47 120.76" stroke="#946ba3"></path>
<path d="M 74.57 198.58
  C 76.79 200.86 78.91 201.48 81.28 202.88
  Q 81.70 203.13 82.19 203.09
  Q 82.59 203.06 82.74 203.14
  C 88.39 206.06 96.00 206.32 102.49 205.78
  Q 104.33 205.63 105.41 205.23
  Q 105.87 205.05 106.16 204.66
  Q 106.45 204.28 106.91 204.36
  Q 107.42 204.44 107.87 204.17
  C 108.99 203.50 110.07 203.13 111.02 202.23
  Q 113.83 199.55 116.33 196.55
  C 117.11 195.62 117.47 194.61 118.17 193.56
  Q 119.08 192.19 119.40 191.27
  C 121.00 186.64 123.13 172.80 114.78 172.77
  Q 114.31 172.77 113.97 172.44
  Q 112.97 171.50 112.00 172.26
  Q 111.60 172.58 111.13 172.37
  Q 110.31 172.01 109.79 171.33
  A 0.82 0.81 -26.0 0 0 108.93 171.04
  Q 107.75 171.36 106.98 170.46
  Q 106.62 170.05 106.15 170.30
  Q 105.95 170.39 105.79 170.54
  Q 105.41 170.86 104.94 170.69
  Q 103.14 170.03 101.90 168.63
  Q 101.51 168.18 101.11 168.62
  Q 100.60 169.17 99.82 169.23
  Q 99.29 169.27 99.08 168.78
  Q 99.00 168.61 98.89 168.43
  Q 98.66 168.08 98.24 168.08
  L 96.30 168.10
  Q 95.73 168.10 95.31 167.72
  Q 94.64 167.11 93.75 167.08
  A 1.24 0.77 52.8 0 1 93.15 166.85
  Q 92.96 166.72 92.93 166.48
  A 0.46 0.45 -7.7 0 0 92.42 166.10
  Q 91.15 166.27 90.53 165.19
  Q 90.45 165.06 90.32 165.14
  L 90.02 165.33
  Q 89.69 165.54 89.33 165.39
  Q 87.56 164.67 85.72 164.70
  Q 85.21 164.71 85.13 164.21
  Q 84.88 162.57 83.09 163.18
  A 0.99 0.98 -32.8 0 1 82.10 162.97
  Q 81.09 162.02 79.80 161.48
  Q 79.46 161.34 79.14 161.51
  Q 78.95 161.61 78.74 161.61
  Q 78.30 161.62 77.95 161.35
  Q 77.43 160.94 76.91 161.42
  Q 76.50 161.79 76.25 161.29
  Q 75.62 159.98 74.63 159.39
  Q 74.35 159.22 74.00 159.33
  Q 73.60 159.46 73.24 159.23
  L 70.56 157.53
  Q 70.20 157.31 69.81 157.47
  Q 69.31 157.67 69.19 157.22
  A 0.61 0.61 0.0 0 0 68.43 156.79
  Q 66.89 157.21 65.31 157.05
  Q 64.91 157.01 64.62 157.28
  C 62.82 158.93 61.10 160.41 60.20 162.73
  C 57.06 170.82 59.13 176.70 62.13 184.91
  Q 62.31 185.41 62.74 185.72
  Q 63.24 186.07 63.14 186.61
  A 0.81 0.80 31.5 0 0 63.30 187.26
  Q 63.97 188.11 65.90 191.01
  Q 66.95 192.60 72.44 197.20
  C 73.05 197.72 73.91 197.91 74.57 198.58" stroke="#d5bcd7"></path>
<path d="M 114.85 126.22
  L 114.47 123.37
  Q 114.40 122.85 114.60 122.37
  L 116.62 117.52
  A 0.25 0.25 0.0 0 1 117.09 117.56
  Q 117.16 117.91 117.08 118.27
  A 0.19 0.18 -21.5 0 0 117.41 118.41
  C 117.89 117.76 117.43 116.71 117.96 115.86
  Q 118.20 115.47 118.04 115.04
  L 116.02 109.70
  Q 115.45 108.18 114.85 109.92
  Q 114.70 110.36 114.32 110.69
  Q 113.98 110.99 113.72 110.61
  Q 113.09 109.67 112.16 108.95
  Q 111.87 108.74 111.82 109.09
  Q 111.64 110.42 112.00 111.70
  Q 112.26 112.65 111.55 111.98
  Q 109.23 109.78 106.25 110.40
  Q 100.85 111.53 97.60 111.76
  Q 97.07 111.79 96.65 112.12
  Q 95.84 112.74 94.97 112.43
  Q 94.63 112.31 94.36 112.54
  Q 94.16 112.72 93.83 112.69
  Q 93.67 112.68 93.17 112.42
  Q 92.42 112.03 91.55 112.58
  A 0.12 0.12 0.0 0 1 91.41 112.38
  Q 91.68 112.17 91.67 112.02
  Q 91.67 111.98 91.14 111.91
  Q 90.85 111.87 90.58 112.00
  Q 90.19 112.19 90.00 111.81
  Q 89.78 111.35 89.25 111.17
  Q 88.19 110.82 87.69 111.61
  Q 87.34 112.15 87.18 111.53
  L 87.05 111.01
  A 0.22 0.22 0.0 0 0 86.62 111.07
  Q 86.65 112.47 87.80 113.12
  Q 88.45 113.48 87.71 113.57
  C 86.35 113.73 85.06 113.57 83.78 113.81
  Q 76.55 115.18 69.23 115.88
  Q 66.33 116.15 63.66 117.28
  A 0.31 0.30 34.3 0 1 63.49 117.31
  Q 61.24 116.99 59.88 117.80
  Q 59.50 118.03 59.07 117.95
  C 57.08 117.60 55.38 118.56 53.78 118.74
  Q 52.40 118.89 51.04 119.13
  Q 48.38 119.60 45.68 119.88
  Q 43.21 120.14 40.38 120.77
  C 36.73 121.58 32.90 121.66 29.41 122.48
  Q 27.05 123.04 24.68 123.57
  Q 24.33 123.65 24.33 123.29
  Q 24.34 123.12 24.38 122.96
  Q 24.51 122.51 24.21 122.15
  Q 23.61 121.42 22.69 121.94
  Q 22.37 122.12 22.34 121.75
  Q 22.31 121.25 21.75 121.35
  Q 18.63 121.92 12.31 123.57
  C 9.01 124.43 5.78 124.75 2.43 125.24
  A 0.38 0.37 -13.4 0 0 2.13 125.72
  Q 2.27 126.14 1.41 125.57
  A 0.51 0.51 0.0 0 1 1.18 125.23
  Q 1.13 124.97 0.95 124.75
  Q 0.89 124.68 0.87 124.77
  Q 0.84 124.93 0.77 125.05
  Q 0.58 125.31 0.50 125.00
  Q 0.46 124.80 0.43 124.60
  Q 0.40 124.44 0.40 124.60
  Q 0.40 125.33 0.00 125.25" stroke="#632779"></path>
<path d="M 256.00 183.52
  Q 255.17 183.00 254.61 182.09
  Q 254.40 181.74 254.00 181.81
  Q 253.51 181.90 253.12 181.37
  C 250.93 180.52 249.16 181.49 247.31 181.36
  Q 238.53 180.76 229.75 180.15
  Q 225.60 179.87 210.78 182.15
  Q 205.71 182.93 200.66 183.98
  Q 200.22 184.08 199.79 183.93
  Q 199.29 183.75 198.91 183.41
  Q 198.49 183.05 197.95 183.17
  Q 186.03 185.87 177.11 186.59
  Q 176.55 186.63 175.92 186.05
  Q 175.54 185.70 175.03 185.78
  Q 170.20 186.51 165.33 186.75
  Q 160.09 187.01 156.98 187.52
  Q 152.85 188.20 148.74 189.01
  C 147.54 189.24 146.60 190.08 145.24 189.21
  Q 144.86 188.97 144.43 189.10
  C 140.06 190.44 137.03 194.57 133.67 197.55
  Q 133.29 197.89 132.86 197.61
  Q 132.40 197.31 132.05 196.87
  A 0.47 0.46 46.4 0 0 131.33 196.85
  Q 129.89 198.54 128.52 200.29
  Q 128.40 200.44 128.27 200.46
  Q 128.08 200.48 127.93 200.35
  Q 127.67 200.14 127.46 200.39
  C 125.20 202.99 122.81 205.80 120.11 207.95
  Q 119.00 208.83 118.00 209.82
  C 116.43 211.38 115.02 212.24 113.25 213.32
  Q 113.15 213.39 113.06 213.30
  Q 112.96 213.19 112.84 213.09
  Q 112.63 212.90 112.38 213.02
  C 109.73 214.28 107.29 215.72 104.40 216.27
  Q 101.12 216.90 97.80 217.33
  Q 94.43 217.75 91.24 216.92
  C 85.80 215.49 79.84 213.87 75.25 210.24
  Q 73.60 208.94 72.04 208.13
  C 68.62 206.34 66.86 203.09 64.12 200.60
  C 61.81 198.49 60.59 196.45 59.00 193.97
  C 57.97 192.37 55.91 190.31 55.13 187.75" stroke="#7e2277"></path>
<path d="M 55.13 187.75
  Q 55.62 185.80 54.28 183.73
  A 0.61 0.61 0.0 0 1 54.89 182.80
  Q 54.97 182.82 55.15 183.10
  C 55.68 183.94 55.30 184.31 56.28 185.11
  Q 56.67 185.43 56.68 185.94
  Q 56.69 187.70 58.00 188.82
  Q 58.13 188.92 58.13 188.76
  Q 58.13 188.62 58.12 188.47
  Q 58.11 188.14 58.41 188.29
  Q 58.54 188.37 58.67 188.51
  Q 59.00 188.90 58.89 188.50
  Q 58.82 188.24 58.97 188.04
  Q 59.15 187.79 59.42 187.95
  Q 59.55 188.03 59.60 188.15
  Q 59.61 188.17 59.61 188.15
  Q 59.62 188.03 59.66 187.93
  Q 59.73 187.72 59.93 187.66
  Q 60.19 187.58 60.55 187.66" stroke="#6c2575"></path>
<path d="M 130.15 152.73
  L 130.13 155.84
  A 0.53 0.53 0.0 0 0 131.01 156.24
  Q 131.20 156.07 131.26 155.90
  Q 131.34 155.62 131.58 155.46
  Q 136.46 152.21 142.24 151.11
  Q 142.46 151.07 142.56 150.90
  Q 142.64 150.78 142.78 150.74
  L 150.86 148.63
  A 0.80 0.79 6.5 0 0 151.34 148.25
  L 151.61 147.77
  Q 151.81 147.40 152.22 147.35
  L 154.23 147.08
  Q 154.71 147.02 155.15 146.81
  Q 155.92 146.43 156.35 145.81
  Q 156.68 145.32 157.27 145.37
  C 159.76 145.55 161.83 144.45 164.05 144.25
  Q 167.81 143.91 171.38 142.82
  Q 172.14 142.59 174.14 142.17
  C 176.72 141.63 179.20 138.96 181.30 137.37
  Q 181.69 137.08 181.82 136.62
  Q 181.93 136.25 182.26 136.01
  Q 187.78 132.02 192.88 127.52
  C 194.08 126.47 199.76 119.64 200.02 116.61
  Q 200.11 115.43 200.09 114.17
  Q 200.08 113.66 200.49 113.37
  Q 201.29 112.82 200.57 112.08
  A 0.88 0.87 36.7 0 1 200.42 111.08
  Q 201.35 109.27 201.12 107.25
  Q 201.06 106.78 201.29 106.37
  Q 203.17 102.83 201.37 100.45" stroke="#652168"></path>
<path d="M 55.13 187.75
  L 52.63 183.45
  Q 52.59 183.37 52.54 183.37
  Q 52.51 183.36 52.47 183.37
  A 0.13 0.08 -14.6 0 0 52.34 183.51
  Q 52.76 183.96 52.53 184.45
  Q 52.42 184.66 52.26 184.50
  L 52.00 184.24
  A 0.08 0.08 0.0 0 0 51.86 184.30
  Q 51.94 184.96 51.59 185.52
  Q 51.34 185.92 51.05 185.54
  L 47.97 181.49" stroke="#7a237c"></path>
<path d="M 47.97 181.49
  L 42.11 174.93
  Q 41.97 174.77 41.78 174.87
  Q 41.65 174.95 41.52 174.96
  Q 41.27 175.00 41.21 175.24
  Q 41.12 175.62 41.32 175.92
  Q 41.74 176.56 41.07 176.20
  Q 37.60 174.34 33.79 175.87
  Q 33.59 175.95 33.63 176.18
  Q 33.65 176.31 33.52 176.30
  Q 32.17 176.17 32.00 175.08
  Q 31.93 174.66 31.51 174.61
  C 29.53 174.39 27.67 175.10 26.16 175.28
  Q 18.70 176.16 11.25 177.13
  Q 4.29 178.05 0.00 177.35" stroke="#782382"></path>
<path d="M 47.97 181.49
  L 49.18 185.37
  Q 49.32 185.83 48.98 185.49
  L 48.50 185.01
  Q 48.49 185.00 48.47 185.00
  Q 48.20 184.99 48.09 185.16
  Q 47.97 185.32 48.06 185.50
  L 51.27 191.81
  Q 51.32 191.89 51.27 191.89
  Q 51.13 191.89 50.99 191.87
  Q 50.32 191.78 50.65 192.37
  L 52.19 195.17
  Q 52.41 195.57 52.87 195.63
  Q 53.70 195.75 54.02 196.49
  C 55.15 199.09 57.41 199.05 58.41 201.62
  Q 58.57 202.05 58.37 202.46
  L 57.71 203.79
  Q 57.46 204.30 57.87 204.69
  L 60.10 206.80
  Q 60.47 207.16 60.42 207.68
  Q 60.28 209.10 59.16 210.04
  Q 58.80 210.34 59.11 210.68
  L 61.88 213.78
  Q 62.07 213.98 61.82 214.11
  Q 61.70 214.16 61.59 214.22
  A 0.28 0.28 0.0 0 0 61.53 214.67
  L 65.88 218.84
  Q 66.08 219.03 65.82 219.12
  Q 65.62 219.19 65.44 219.29
  Q 65.12 219.45 64.80 219.30
  L 64.08 218.97
  Q 64.03 218.94 64.02 219.00
  Q 63.99 219.14 63.97 219.30
  Q 63.94 219.61 63.70 219.41
  L 60.91 217.08
  Q 60.46 216.70 60.12 216.22
  Q 58.66 214.16 56.34 213.23
  Q 55.92 213.05 55.58 212.75
  L 53.07 210.46
  Q 52.64 210.07 52.26 210.51
  Q 51.80 211.04 51.14 210.84
  A 0.70 0.69 30.2 0 0 50.48 211.01
  L 50.27 211.22
  Q 49.88 211.62 50.24 212.05
  Q 53.29 215.60 57.36 217.88
  Q 57.83 218.14 57.79 218.61
  Q 57.77 218.87 57.50 218.87
  L 57.09 218.87
  A 0.21 0.21 0.0 0 0 56.95 219.23
  L 61.09 222.98
  A 0.15 0.14 55.9 0 1 61.05 223.23
  Q 60.77 223.33 60.90 223.61
  Q 61.03 223.88 61.33 223.88
  L 62.99 223.88
  A 1.63 1.61 63.4 0 1 63.98 224.22
  L 71.70 230.20" stroke="#892084"></path>
<path d="M 71.70 230.20
  Q 68.79 231.67 64.31 228.60
  Q 64.05 228.43 64.05 228.74
  Q 64.05 228.90 64.06 229.08
  A 0.27 0.26 13.2 0 1 63.66 229.32
  L 56.77 225.41
  Q 56.47 225.24 56.27 225.51
  Q 56.16 225.65 56.14 225.83
  Q 56.09 226.52 55.64 226.11
  L 53.60 224.29
  Q 53.31 224.03 52.91 224.01
  C 49.56 223.84 49.02 219.48 45.02 221.01
  Q 44.56 221.19 44.10 220.99
  C 42.14 220.16 40.77 219.02 38.67 218.52
  Q 37.38 218.21 36.12 217.83
  C 35.11 217.52 33.88 217.71 32.77 217.18
  Q 32.35 216.98 31.91 217.14
  Q 30.48 217.64 28.97 217.26
  A 2.29 2.26 -42.9 0 0 27.96 217.23
  Q 21.44 218.54 14.90 217.84
  Q 11.72 217.49 9.10 217.77
  Q 4.95 218.22 3.24 218.05
  Q 1.43 217.88 0.00 218.27" stroke="#971d8e"></path>
<path d="M 256.00 216.36
  L 254.06 215.44
  Q 253.58 215.21 253.22 215.60
  Q 252.46 216.39 251.29 216.08
  Q 251.18 216.05 251.10 216.12
  L 250.91 216.32
  Q 250.67 216.55 250.37 216.41
  L 248.26 215.47
  Q 248.11 215.40 248.09 215.56
  Q 247.95 216.74 246.58 217.03
  A 0.32 0.31 -73.8 0 1 246.29 216.50
  L 246.49 216.31
  Q 246.65 216.14 246.42 216.14
  L 238.03 215.82
  Q 237.66 215.80 237.92 216.07
  L 238.27 216.42
  Q 238.59 216.73 238.95 216.48
  Q 239.81 215.88 240.69 216.40
  Q 241.46 216.87 240.56 216.86
  Q 237.09 216.86 233.65 216.49
  Q 232.65 216.38 230.85 216.47
  Q 229.42 216.55 228.01 216.28
  Q 225.75 215.86 223.90 215.91
  C 221.76 215.96 219.66 215.37 217.69 215.38
  C 215.25 215.40 212.51 215.16 210.12 215.63
  C 208.66 215.92 206.82 215.60 205.69 215.71
  Q 198.13 216.39 190.56 216.83
  Q 190.22 216.85 190.02 216.56
  Q 189.87 216.36 189.50 216.36
  C 185.26 216.43 180.91 216.10 176.84 216.47
  Q 169.68 217.11 162.53 217.92
  Q 161.14 218.08 158.37 217.85
  Q 151.02 217.23 143.33 220.50
  Q 143.02 220.63 143.02 220.29
  Q 143.02 220.16 143.03 220.02
  Q 143.04 219.87 142.92 219.78
  Q 141.87 218.98 140.52 218.82
  Q 140.10 218.76 139.74 218.99
  Q 135.71 221.50 131.74 224.10
  C 130.98 224.60 129.14 225.61 129.09 225.73
  Q 128.93 226.03 128.64 226.22
  Q 118.75 232.50 115.97 233.73
  Q 107.45 237.54 103.00 238.59
  Q 96.86 240.05 95.00 239.64
  C 91.88 238.96 89.15 239.10 86.18 237.76
  Q 82.35 236.04 78.31 234.86
  Q 77.60 234.65 76.84 234.36
  A 0.45 0.45 0.0 0 1 76.66 233.65
  Q 77.05 233.20 76.61 232.92
  Q 74.98 231.87 71.70 230.20" stroke="#991c88"></path>
</g>
<path d="M 10.61 0.00
  L 119.89 0.00
  L 111.97 0.38
  Q 111.87 0.38 111.87 0.47
  Q 111.87 0.62 111.88 0.77
  A 0.01 0.01 0.0 0 0 111.90 0.78
  Q 112.56 0.01 112.86 0.75
  Q 113.01 1.10 113.14 0.75
  Q 113.19 0.62 113.25 0.50
  A 0.28 0.28 0.0 0 1 113.75 0.50
  Q 113.81 0.63 113.86 0.75
  Q 114.00 1.12 114.14 0.75
  Q 114.19 0.62 114.25 0.50
  Q 114.31 0.38 114.45 0.38
  L 119.46 0.38
  Q 119.51 0.38 119.55 0.41
  Q 119.67 0.50 119.78 0.61
  Q 120.00 0.84 120.23 0.62
  Q 120.57 0.29 121.06 0.32
  Q 121.31 0.34 121.79 0.66
  Q 122.61 1.23 123.48 0.44
  Q 123.54 0.38 123.60 0.44
  Q 123.72 0.55 123.84 0.69
  Q 124.00 0.87 124.13 0.67
  Q 124.30 0.41 124.60 0.38
  Q 124.75 0.36 124.87 0.43
  Q 125.07 0.56 125.00 0.77
  A 0.13 0.13 0.0 0 0 125.21 0.92
  Q 125.37 0.79 125.54 0.83
  Q 125.91 0.92 125.62 1.17
  Q 125.50 1.28 125.44 1.41
  A 0.44 0.43 -68.2 0 0 125.70 2.02
  Q 126.52 2.25 127.38 2.08
  Q 127.88 1.98 127.88 1.48
  L 127.88 0.93
  Q 127.88 0.23 128.57 0.28
  L 134.90 0.68
  A 0.34 0.31 21.2 0 0 135.16 0.58
  Q 135.35 0.40 135.60 0.36
  Q 135.90 0.31 135.88 0.61
  Q 135.87 0.75 135.88 0.87
  Q 135.90 1.12 136.17 0.61
  Q 136.25 0.46 136.47 0.38
  A 0.22 0.21 71.2 0 1 136.74 0.52
  L 137.08 1.51
  Q 137.27 2.05 137.70 1.68
  Q 138.39 1.10 138.97 2.33
  Q 139.19 2.79 138.82 3.14
  Q 138.50 3.44 138.06 3.59
  Q 137.52 3.77 137.09 3.41
  Q 136.54 2.97 135.83 3.15
  Q 135.35 3.27 135.11 3.70
  Q 134.45 4.85 132.90 4.78
  Q 132.47 4.76 132.19 4.43
  Q 132.08 4.30 131.95 4.22
  Q 131.59 3.99 131.22 4.22
  L 128.46 5.98
  Q 128.12 6.20 128.12 6.60
  L 128.12 7.15
  Q 128.12 7.63 127.69 7.86
  Q 126.87 8.28 126.17 7.84
  Q 125.88 7.65 125.88 7.30
  L 125.88 6.82
  A 0.25 0.24 53.1 0 0 125.40 6.75
  Q 125.05 8.03 125.32 9.25
  Q 125.46 9.88 124.82 9.89
  Q 124.53 9.90 124.26 9.75
  Q 123.84 9.52 123.87 9.04
  Q 123.88 8.86 123.88 8.69
  A 0.43 0.43 0.0 0 0 123.26 8.33
  Q 122.22 8.85 121.04 8.60
  Q 120.65 8.52 120.63 8.92
  Q 120.62 9.09 120.61 9.28
  Q 120.60 9.69 121.00 9.63
  Q 121.94 9.50 122.71 9.99
  A 0.45 0.44 41.3 0 1 122.76 10.71
  Q 120.92 12.24 118.76 11.26
  Q 118.14 10.98 118.12 11.66
  Q 118.11 12.19 117.45 12.13
  Q 116.98 12.10 116.90 12.56
  Q 116.57 14.42 114.52 13.78
  Q 113.77 13.54 114.41 13.09
  Q 114.66 12.92 114.66 12.66
  Q 114.66 12.13 114.40 12.60
  Q 114.13 13.11 113.46 13.17
  A 0.34 0.34 0.0 0 0 113.25 13.75
  L 113.75 14.25
  A 0.36 0.36 0.0 0 1 113.49 14.87
  Q 112.61 14.85 111.88 15.35
  Q 111.52 15.59 111.14 15.39
  Q 110.26 14.94 109.29 15.15
  Q 108.92 15.23 108.77 15.48
  Q 108.59 15.79 108.67 16.19
  Q 108.74 16.59 108.37 16.41
  Q 108.16 16.31 107.97 16.12
  Q 107.60 15.72 107.24 16.13
  L 105.83 17.74
  Q 105.44 18.18 105.11 17.70
  Q 104.83 17.29 104.88 16.81
  Q 104.98 15.89 104.31 16.52
  Q 103.52 17.27 104.08 18.46
  Q 104.15 18.62 104.02 18.73
  Q 103.70 19.00 103.25 18.79
  A 0.08 0.07 11.7 0 1 103.20 18.72
  L 103.07 17.24
  Q 102.99 16.37 102.43 17.04
  L 100.61 19.22
  A 0.38 0.38 0.0 0 1 99.96 19.11
  Q 99.69 18.38 98.81 18.62
  Q 98.33 18.75 98.16 19.21
  Q 97.20 21.87 94.21 21.03
  A 0.76 0.76 0.0 0 0 93.35 21.37
  Q 92.81 22.25 91.81 22.13
  Q 91.52 22.09 91.27 22.23
  L 90.76 22.50
  Q 90.41 22.69 90.04 22.54
  Q 89.02 22.10 88.01 22.66
  Q 87.94 22.69 88.00 22.75
  L 88.27 23.02
  A 0.66 0.66 0.0 0 1 88.21 24.00
  L 85.51 26.19
  A 0.39 0.39 0.0 0 1 84.87 25.87
  Q 84.88 25.66 84.89 25.46
  A 0.13 0.13 0.0 0 0 84.70 25.34
  Q 84.33 25.53 84.37 25.82
  A 0.07 0.06 5.7 0 0 84.43 25.88
  Q 84.93 25.92 84.87 26.47
  A 0.71 0.70 -87.7 0 1 84.18 27.11
  Q 83.11 27.12 82.55 28.00
  Q 82.31 28.37 81.87 28.37
  Q 81.69 28.37 81.50 28.37
  Q 81.14 28.37 81.12 28.74
  Q 81.08 29.67 80.25 29.90
  A 0.89 0.89 0.0 0 1 79.37 29.63
  Q 77.98 28.07 76.49 29.26
  Q 76.07 29.60 76.13 30.14
  Q 76.19 30.57 75.87 30.88
  Q 75.49 31.24 75.12 30.87
  L 74.78 30.52
  A 0.35 0.35 0.0 0 0 74.50 30.43
  Q 74.00 30.49 74.15 30.82
  A 0.32 0.32 0.0 0 1 73.85 31.27
  Q 72.95 31.26 72.06 30.88
  Q 71.79 30.77 71.49 30.79
  Q 70.44 30.88 70.25 31.67
  A 0.62 0.62 0.0 0 1 69.56 32.14
  Q 68.53 31.99 67.59 32.34
  A 0.15 0.14 -61.4 0 0 67.67 32.62
  Q 68.65 32.38 69.01 33.29
  Q 69.22 33.81 68.69 34.00
  L 67.79 34.33
  Q 67.30 34.51 67.11 34.02
  Q 66.48 32.42 64.59 33.33
  Q 64.24 33.50 64.51 33.77
  L 64.85 34.10
  A 0.45 0.45 0.0 0 1 64.53 34.87
  L 62.98 34.87
  Q 62.48 34.87 62.32 35.34
  Q 61.97 36.40 60.86 36.25
  Q 60.44 36.20 60.36 36.61
  Q 60.17 37.67 61.23 37.86
  Q 61.88 37.98 61.88 38.64
  Q 61.87 39.24 61.47 39.67
  Q 61.27 39.88 60.97 39.91
  Q 60.63 39.95 60.40 39.80
  Q 60.09 39.60 59.76 39.74
  Q 58.71 40.19 57.65 40.11
  Q 57.09 40.08 56.95 40.62
  Q 56.76 41.34 56.00 40.99
  Q 55.58 40.80 55.25 41.11
  Q 53.40 42.86 50.98 42.06
  Q 50.55 41.92 50.25 42.26
  Q 49.70 42.86 48.90 43.12
  Q 48.43 43.27 47.96 43.13
  Q 47.54 43.00 47.15 43.19
  Q 46.39 43.57 46.25 43.60
  Q 43.90 44.19 41.71 45.21
  C 40.14 45.95 38.88 45.75 37.25 45.69
  Q 36.87 45.67 36.87 46.04
  L 36.87 46.47
  Q 36.86 46.96 36.43 46.74
  Q 35.19 46.09 33.80 46.66
  Q 33.30 46.86 33.37 47.40
  Q 33.41 47.73 33.27 47.95
  Q 33.04 48.32 33.41 48.56
  Q 34.16 49.05 34.73 49.78
  Q 34.98 50.11 34.57 50.09
  Q 32.91 50.00 31.89 51.44
  Q 31.64 51.78 31.22 51.86
  Q 30.88 51.92 30.74 52.17
  A 1.67 0.17 -61.2 0 1 30.20 52.95
  L 29.15 54.06
  Q 28.79 54.43 28.88 54.94
  Q 29.19 56.81 27.24 57.23
  Q 23.52 58.02 20.66 58.76
  Q 18.92 59.21 14.34 61.09
  Q 7.52 63.89 0.00 64.00
  L 0.00 10.05
  Q 2.21 1.49 10.61 0.00
  Z" fill="#492878"></path>
<path d="M 119.89 0.00
  L 245.96 0.00
  Q 254.51 2.24 256.00 10.57
  L 256.00 38.48
  Q 255.30 37.79 254.82 39.62
  Q 254.72 40.04 254.47 39.68
  Q 254.37 39.53 254.40 39.34
  Q 254.47 38.92 254.05 38.85
  Q 253.49 38.76 253.39 39.32
  Q 253.31 39.81 252.81 39.87
  Q 251.82 39.99 251.69 40.92
  Q 251.62 41.48 251.32 40.99
  Q 250.90 40.31 250.75 39.52
  A 0.39 0.39 0.0 0 0 249.99 39.52
  Q 249.65 41.13 247.99 40.60
  Q 247.55 40.46 247.78 40.07
  Q 247.93 39.82 247.89 39.70
  Q 247.43 38.26 247.16 39.74
  Q 247.15 39.79 247.19 40.10
  Q 247.21 40.30 247.02 40.25
  L 246.47 40.12
  Q 246.29 40.08 246.25 40.26
  Q 246.09 41.08 245.37 41.10
  Q 245.06 41.11 244.68 40.85
  Q 243.21 39.87 241.69 38.97
  Q 241.28 38.73 241.07 38.29
  Q 240.75 37.63 241.24 37.36
  Q 241.74 37.09 241.98 37.60
  L 242.20 38.06
  A 0.38 0.37 -58.2 0 0 242.91 37.89
  Q 242.90 37.64 243.03 37.36
  Q 243.24 36.90 242.73 36.87
  Q 242.25 36.84 241.98 36.49
  Q 241.54 35.94 241.10 36.49
  Q 240.85 36.81 240.86 37.19
  A 0.38 0.38 0.0 0 1 240.15 37.40
  Q 239.98 37.12 239.75 37.11
  A 0.41 0.09 5.6 0 0 239.40 37.15
  Q 238.99 37.67 238.41 38.02
  Q 237.63 38.49 237.63 37.58
  L 237.63 36.28
  Q 237.63 36.17 237.54 36.22
  Q 237.39 36.30 237.23 36.37
  A 0.19 0.18 62.7 0 0 237.15 36.64
  Q 237.68 37.42 237.12 38.12
  Q 236.74 38.59 236.25 38.24
  Q 235.80 37.91 235.14 38.27
  Q 234.99 38.35 234.95 38.52
  Q 234.91 38.71 234.97 38.90
  Q 235.09 39.28 234.87 39.61
  Q 234.76 39.78 234.55 39.85
  A 0.32 0.32 0.0 0 1 234.13 39.52
  Q 234.18 39.09 233.89 38.74
  Q 233.47 38.25 233.30 38.87
  Q 233.02 39.91 231.97 39.88
  Q 231.54 39.87 231.19 40.12
  L 230.87 40.35
  Q 230.47 40.64 230.17 40.24
  L 229.61 39.49
  Q 229.46 39.29 229.34 39.52
  L 228.70 40.80
  Q 228.63 40.93 228.50 40.87
  Q 228.38 40.81 228.25 40.76
  Q 227.63 40.57 227.52 40.59
  Q 226.02 40.80 224.65 41.35
  Q 224.45 41.43 224.24 41.36
  Q 224.08 41.31 223.95 41.20
  A 0.41 0.40 41.8 0 0 223.40 41.23
  Q 223.08 41.57 223.11 41.94
  Q 223.13 42.13 222.96 42.20
  L 219.90 43.60
  Q 219.53 43.77 219.13 43.67
  Q 218.48 43.51 217.80 43.61
  Q 217.62 43.63 217.61 43.82
  Q 217.60 44.13 217.70 44.35
  A 0.23 0.22 -81.2 0 1 217.35 44.61
  Q 217.12 44.41 217.13 44.14
  A 0.40 0.40 0.0 0 0 216.35 44.02
  Q 215.63 46.59 212.63 45.98
  A 1.60 1.58 -64.3 0 0 211.09 46.53
  Q 210.38 47.38 209.35 47.15
  Q 208.88 47.05 208.48 47.34
  Q 207.58 48.00 206.40 48.12
  Q 205.97 48.17 205.74 48.53
  Q 205.06 49.63 203.85 48.87
  A 0.48 0.48 0.0 0 0 203.13 49.14
  Q 202.84 50.11 201.75 49.85
  Q 201.67 49.83 201.00 50.11
  Q 200.76 50.21 200.75 50.49
  Q 200.74 50.81 199.89 50.46
  Q 199.69 50.37 199.50 50.40
  Q 199.09 50.46 199.17 50.86
  Q 199.23 51.15 199.17 51.39
  Q 199.09 51.69 198.68 51.90
  Q 197.30 52.59 194.77 53.39
  Q 193.09 53.91 191.79 53.32
  Q 191.31 53.10 190.83 53.30
  Q 190.32 53.51 189.77 53.50
  Q 189.60 53.50 189.74 53.59
  Q 189.85 53.67 189.98 53.71
  Q 190.11 53.75 190.15 53.87
  Q 190.35 54.50 189.88 54.84
  Q 189.52 55.10 189.30 54.71
  Q 189.19 54.50 189.02 54.41
  Q 188.57 54.18 188.30 54.60
  Q 187.23 56.29 185.66 54.40
  A 0.33 0.33 0.0 0 0 185.09 54.72
  Q 185.20 55.05 184.95 55.30
  Q 184.84 55.40 184.87 55.55
  Q 184.95 55.94 185.45 55.89
  A 0.32 0.31 1.4 0 1 185.79 56.24
  Q 185.74 56.59 185.43 57.19
  C 172.40 47.09 152.98 43.67 139.19 54.38
  C 132.80 59.58 129.62 66.82 128.07 74.79
  Q 127.78 74.21 127.89 73.52
  A 0.13 0.13 0.0 0 0 127.76 73.37
  Q 127.63 73.37 127.50 73.38
  Q 127.41 73.38 127.39 73.46
  L 126.08 77.76
  A 0.23 0.23 0.0 0 1 125.63 77.70
  L 125.63 77.37
  A 0.31 0.30 -11.4 0 0 125.21 77.10
  Q 124.04 77.61 123.32 76.51
  Q 123.16 76.27 123.00 76.50
  Q 122.32 77.50 122.08 78.66
  Q 121.93 79.41 121.43 78.84
  Q 120.52 77.81 119.38 75.75
  Q 118.96 74.99 117.78 74.79
  Q 117.21 74.69 116.97 74.16
  L 116.77 73.71
  Q 116.58 73.31 116.14 73.27
  C 114.20 73.12 112.88 72.92 110.86 73.61
  Q 108.80 74.31 106.59 73.87
  Q 106.06 73.77 105.85 74.25
  Q 105.62 74.76 105.18 74.57
  Q 104.73 74.37 104.29 74.58
  C 102.39 75.47 100.33 74.91 98.03 75.96
  Q 97.58 76.17 97.08 76.10
  Q 95.37 75.86 94.01 76.13
  C 89.76 76.96 85.60 77.39 81.73 78.36
  Q 72.24 80.73 69.00 80.63
  C 67.06 80.57 65.63 81.09 64.36 81.18
  Q 57.58 81.65 53.25 83.01
  C 49.90 84.06 46.85 84.38 43.65 85.19
  Q 41.25 85.79 37.24 86.45
  Q 31.04 87.47 24.83 88.65
  Q 24.37 88.74 24.07 89.11
  L 23.52 89.78
  Q 23.25 90.12 22.82 90.13
  Q 22.56 90.14 22.42 89.95
  Q 22.06 89.47 21.47 89.60
  L 1.82 93.80
  Q 1.15 93.94 1.15 94.63
  L 1.15 95.25
  Q 1.15 95.85 0.55 95.91
  L 0.00 95.96
  L 0.00 64.00
  Q 7.52 63.89 14.34 61.09
  Q 18.92 59.21 20.66 58.76
  Q 23.52 58.02 27.24 57.23
  Q 29.19 56.81 28.88 54.94
  Q 28.79 54.43 29.15 54.06
  L 30.20 52.95
  A 1.67 0.17 -61.2 0 0 30.74 52.17
  Q 30.88 51.92 31.22 51.86
  Q 31.64 51.78 31.89 51.44
  Q 32.91 50.00 34.57 50.09
  Q 34.98 50.11 34.73 49.78
  Q 34.16 49.05 33.41 48.56
  Q 33.04 48.32 33.27 47.95
  Q 33.41 47.73 33.37 47.40
  Q 33.30 46.86 33.80 46.66
  Q 35.19 46.09 36.43 46.74
  Q 36.86 46.96 36.87 46.47
  L 36.87 46.04
  Q 36.87 45.67 37.25 45.69
  C 38.88 45.75 40.14 45.95 41.71 45.21
  Q 43.90 44.19 46.25 43.60
  Q 46.39 43.57 47.15 43.19
  Q 47.54 43.00 47.96 43.13
  Q 48.43 43.27 48.90 43.12
  Q 49.70 42.86 50.25 42.26
  Q 50.55 41.92 50.98 42.06
  Q 53.40 42.86 55.25 41.11
  Q 55.58 40.80 56.00 40.99
  Q 56.76 41.34 56.95 40.62
  Q 57.09 40.08 57.65 40.11
  Q 58.71 40.19 59.76 39.74
  Q 60.09 39.60 60.40 39.80
  Q 60.63 39.95 60.97 39.91
  Q 61.27 39.88 61.47 39.67
  Q 61.87 39.24 61.88 38.64
  Q 61.88 37.98 61.23 37.86
  Q 60.17 37.67 60.36 36.61
  Q 60.44 36.20 60.86 36.25
  Q 61.97 36.40 62.32 35.34
  Q 62.48 34.87 62.98 34.87
  L 64.53 34.87
  A 0.45 0.45 0.0 0 0 64.85 34.10
  L 64.51 33.77
  Q 64.24 33.50 64.59 33.33
  Q 66.48 32.42 67.11 34.02
  Q 67.30 34.51 67.79 34.33
  L 68.69 34.00
  Q 69.22 33.81 69.01 33.29
  Q 68.65 32.38 67.67 32.62
  A 0.15 0.14 -61.4 0 1 67.59 32.34
  Q 68.53 31.99 69.56 32.14
  A 0.62 0.62 0.0 0 0 70.25 31.67
  Q 70.44 30.88 71.49 30.79
  Q 71.79 30.77 72.06 30.88
  Q 72.95 31.26 73.85 31.27
  A 0.32 0.32 0.0 0 0 74.15 30.82
  Q 74.00 30.49 74.50 30.43
  A 0.35 0.35 0.0 0 1 74.78 30.52
  L 75.12 30.87
  Q 75.49 31.24 75.87 30.88
  Q 76.19 30.57 76.13 30.14
  Q 76.07 29.60 76.49 29.26
  Q 77.98 28.07 79.37 29.63
  A 0.89 0.89 0.0 0 0 80.25 29.90
  Q 81.08 29.67 81.12 28.74
  Q 81.14 28.37 81.50 28.37
  Q 81.69 28.37 81.87 28.37
  Q 82.31 28.37 82.55 28.00
  Q 83.11 27.12 84.18 27.11
  A 0.71 0.70 -87.7 0 0 84.87 26.47
  Q 84.93 25.92 84.43 25.88
  A 0.07 0.06 5.7 0 1 84.37 25.82
  Q 84.33 25.53 84.70 25.34
  A 0.13 0.13 0.0 0 1 84.89 25.46
  Q 84.88 25.66 84.87 25.87
  A 0.39 0.39 0.0 0 0 85.51 26.19
  L 88.21 24.00
  A 0.66 0.66 0.0 0 0 88.27 23.02
  L 88.00 22.75
  Q 87.94 22.69 88.01 22.66
  Q 89.02 22.10 90.04 22.54
  Q 90.41 22.69 90.76 22.50
  L 91.27 22.23
  Q 91.52 22.09 91.81 22.13
  Q 92.81 22.25 93.35 21.37
  A 0.76 0.76 0.0 0 1 94.21 21.03
  Q 97.20 21.87 98.16 19.21
  Q 98.33 18.75 98.81 18.62
  Q 99.69 18.38 99.96 19.11
  A 0.38 0.38 0.0 0 0 100.61 19.22
  L 102.43 17.04
  Q 102.99 16.37 103.07 17.24
  L 103.20 18.72
  A 0.08 0.07 11.7 0 0 103.25 18.79
  Q 103.70 19.00 104.02 18.73
  Q 104.15 18.62 104.08 18.46
  Q 103.52 17.27 104.31 16.52
  Q 104.98 15.89 104.88 16.81
  Q 104.83 17.29 105.11 17.70
  Q 105.44 18.18 105.83 17.74
  L 107.24 16.13
  Q 107.60 15.72 107.97 16.12
  Q 108.16 16.31 108.37 16.41
  Q 108.74 16.59 108.67 16.19
  Q 108.59 15.79 108.77 15.48
  Q 108.92 15.23 109.29 15.15
  Q 110.26 14.94 111.14 15.39
  Q 111.52 15.59 111.88 15.35
  Q 112.61 14.85 113.49 14.87
  A 0.36 0.36 0.0 0 0 113.75 14.25
  L 113.25 13.75
  A 0.34 0.34 0.0 0 1 113.46 13.17
  Q 114.13 13.11 114.40 12.60
  Q 114.66 12.13 114.66 12.66
  Q 114.66 12.92 114.41 13.09
  Q 113.77 13.54 114.52 13.78
  Q 116.57 14.42 116.90 12.56
  Q 116.98 12.10 117.45 12.13
  Q 118.11 12.19 118.12 11.66
  Q 118.14 10.98 118.76 11.26
  Q 120.92 12.24 122.76 10.71
  A 0.45 0.44 41.3 0 0 122.71 9.99
  Q 121.94 9.50 121.00 9.63
  Q 120.60 9.69 120.61 9.28
  Q 120.62 9.09 120.63 8.92
  Q 120.65 8.52 121.04 8.60
  Q 122.22 8.85 123.26 8.33
  A 0.43 0.43 0.0 0 1 123.88 8.69
  Q 123.88 8.86 123.87 9.04
  Q 123.84 9.52 124.26 9.75
  Q 124.53 9.90 124.82 9.89
  Q 125.46 9.88 125.32 9.25
  Q 125.05 8.03 125.40 6.75
  A 0.25 0.24 53.1 0 1 125.88 6.82
  L 125.88 7.30
  Q 125.88 7.65 126.17 7.84
  Q 126.87 8.28 127.69 7.86
  Q 128.12 7.63 128.12 7.15
  L 128.12 6.60
  Q 128.12 6.20 128.46 5.98
  L 131.22 4.22
  Q 131.59 3.99 131.95 4.22
  Q 132.08 4.30 132.19 4.43
  Q 132.47 4.76 132.90 4.78
  Q 134.45 4.85 135.11 3.70
  Q 135.35 3.27 135.83 3.15
  Q 136.54 2.97 137.09 3.41
  Q 137.52 3.77 138.06 3.59
  Q 138.50 3.44 138.82 3.14
  Q 139.19 2.79 138.97 2.33
  Q 138.39 1.10 137.70 1.68
  Q 137.27 2.05 137.08 1.51
  L 136.74 0.52
  A 0.22 0.21 71.2 0 0 136.47 0.38
  Q 136.25 0.46 136.17 0.61
  Q 135.90 1.12 135.88 0.87
  Q 135.87 0.75 135.88 0.61
  Q 135.90 0.31 135.60 0.36
  Q 135.35 0.40 135.16 0.58
  A 0.34 0.31 21.2 0 1 134.90 0.68
  L 128.57 0.28
  Q 127.88 0.23 127.88 0.93
  L 127.88 1.48
  Q 127.88 1.98 127.38 2.08
  Q 126.52 2.25 125.70 2.02
  A 0.44 0.43 -68.2 0 1 125.44 1.41
  Q 125.50 1.28 125.62 1.17
  Q 125.91 0.92 125.54 0.83
  Q 125.37 0.79 125.21 0.92
  A 0.13 0.13 0.0 0 1 125.00 0.77
  Q 125.07 0.56 124.87 0.43
  Q 124.75 0.36 124.60 0.38
  Q 124.30 0.41 124.13 0.67
  Q 124.00 0.87 123.84 0.69
  Q 123.72 0.55 123.60 0.44
  Q 123.54 0.38 123.48 0.44
  Q 122.61 1.23 121.79 0.66
  Q 121.31 0.34 121.06 0.32
  Q 120.57 0.29 120.23 0.62
  Q 120.00 0.84 119.78 0.61
  Q 119.67 0.50 119.55 0.41
  Q 119.51 0.38 119.46 0.38
  L 114.45 0.38
  Q 114.31 0.38 114.25 0.50
  Q 114.19 0.62 114.14 0.75
  Q 114.00 1.12 113.86 0.75
  Q 113.81 0.63 113.75 0.50
  A 0.28 0.28 0.0 0 0 113.25 0.50
  Q 113.19 0.62 113.14 0.75
  Q 113.01 1.10 112.86 0.75
  Q 112.56 0.01 111.90 0.78
  A 0.01 0.01 0.0 0 1 111.88 0.77
  Q 111.87 0.62 111.87 0.47
  Q 111.87 0.38 111.97 0.38
  L 119.89 0.00
  Z" fill="#522876"></path>
<path d="M 256.00 38.48
  L 256.00 90.12
  Q 255.65 89.92 255.63 89.44
  Q 255.61 89.07 255.36 88.80
  Q 254.89 88.27 254.70 87.63
  Q 254.63 87.38 254.38 87.37
  Q 253.25 87.31 253.11 87.64
  A 2.47 2.25 40.2 0 1 249.04 87.79
  Q 248.12 86.55 246.48 87.45
  Q 246.10 87.66 245.86 88.02
  Q 245.51 88.57 244.87 88.81
  A 0.68 0.68 0.0 0 1 244.16 88.66
  L 243.74 88.24
  A 0.45 0.45 0.0 0 0 242.98 88.49
  Q 242.89 89.07 242.50 89.51
  A 0.52 0.51 44.7 0 1 241.73 89.51
  Q 241.16 88.87 240.40 88.99
  Q 240.27 89.01 240.20 89.12
  Q 240.09 89.29 240.01 89.47
  A 0.54 0.53 25.9 0 1 239.27 89.72
  Q 237.88 88.99 236.86 89.83
  Q 236.32 90.27 235.96 89.68
  Q 235.64 89.15 235.15 89.55
  Q 235.05 89.63 234.95 89.57
  Q 234.84 89.49 234.74 89.40
  Q 234.55 89.22 234.36 89.40
  Q 232.47 91.30 229.85 91.06
  Q 229.45 91.02 229.09 91.21
  Q 228.53 91.50 227.93 91.32
  Q 227.40 91.16 226.85 91.29
  L 220.52 92.78
  A 0.27 0.27 0.0 0 1 220.36 92.27
  Q 220.97 92.02 220.62 91.71
  Q 220.37 91.48 220.37 91.82
  L 220.37 92.25
  Q 220.37 92.62 220.00 92.62
  L 217.96 92.62
  Q 217.49 92.62 217.13 92.91
  L 214.31 95.18
  Q 213.92 95.50 213.93 95.99
  Q 213.93 96.83 213.51 97.63
  Q 213.32 97.99 213.43 98.38
  Q 213.85 99.77 212.85 100.89
  Q 212.43 101.37 212.23 101.96
  L 211.92 102.87
  A 0.28 0.28 0.0 0 1 211.38 102.76
  Q 211.51 100.47 210.61 98.31
  A 0.38 0.38 0.0 0 1 210.87 97.79
  Q 211.33 97.68 210.88 97.22
  Q 210.68 97.01 210.59 97.29
  L 209.11 101.77
  Q 208.92 102.36 208.73 101.77
  C 207.94 99.21 208.53 90.97 204.95 89.87
  Q 204.49 89.72 204.35 89.26
  Q 203.72 87.23 202.57 85.88
  Q 199.78 69.50 187.18 58.45
  L 185.43 57.19
  Q 185.74 56.59 185.79 56.24
  A 0.32 0.31 1.4 0 0 185.45 55.89
  Q 184.95 55.94 184.87 55.55
  Q 184.84 55.40 184.95 55.30
  Q 185.20 55.05 185.09 54.72
  A 0.33 0.33 0.0 0 1 185.66 54.40
  Q 187.23 56.29 188.30 54.60
  Q 188.57 54.18 189.02 54.41
  Q 189.19 54.50 189.30 54.71
  Q 189.52 55.10 189.88 54.84
  Q 190.35 54.50 190.15 53.87
  Q 190.11 53.75 189.98 53.71
  Q 189.85 53.67 189.74 53.59
  Q 189.60 53.50 189.77 53.50
  Q 190.32 53.51 190.83 53.30
  Q 191.31 53.10 191.79 53.32
  Q 193.09 53.91 194.77 53.39
  Q 197.30 52.59 198.68 51.90
  Q 199.09 51.69 199.17 51.39
  Q 199.23 51.15 199.17 50.86
  Q 199.09 50.46 199.50 50.40
  Q 199.69 50.37 199.89 50.46
  Q 200.74 50.81 200.75 50.49
  Q 200.76 50.21 201.00 50.11
  Q 201.67 49.83 201.75 49.85
  Q 202.84 50.11 203.13 49.14
  A 0.48 0.48 0.0 0 1 203.85 48.87
  Q 205.06 49.63 205.74 48.53
  Q 205.97 48.17 206.40 48.12
  Q 207.58 48.00 208.48 47.34
  Q 208.88 47.05 209.35 47.15
  Q 210.38 47.38 211.09 46.53
  A 1.60 1.58 -64.3 0 1 212.63 45.98
  Q 215.63 46.59 216.35 44.02
  A 0.40 0.40 0.0 0 1 217.13 44.14
  Q 217.12 44.41 217.35 44.61
  A 0.23 0.22 -81.2 0 0 217.70 44.35
  Q 217.60 44.13 217.61 43.82
  Q 217.62 43.63 217.80 43.61
  Q 218.48 43.51 219.13 43.67
  Q 219.53 43.77 219.90 43.60
  L 222.96 42.20
  Q 223.13 42.13 223.11 41.94
  Q 223.08 41.57 223.40 41.23
  A 0.41 0.40 41.8 0 1 223.95 41.20
  Q 224.08 41.31 224.24 41.36
  Q 224.45 41.43 224.65 41.35
  Q 226.02 40.80 227.52 40.59
  Q 227.63 40.57 228.25 40.76
  Q 228.38 40.81 228.50 40.87
  Q 228.63 40.93 228.70 40.80
  L 229.34 39.52
  Q 229.46 39.29 229.61 39.49
  L 230.17 40.24
  Q 230.47 40.64 230.87 40.35
  L 231.19 40.12
  Q 231.54 39.87 231.97 39.88
  Q 233.02 39.91 233.30 38.87
  Q 233.47 38.25 233.89 38.74
  Q 234.18 39.09 234.13 39.52
  A 0.32 0.32 0.0 0 0 234.55 39.85
  Q 234.76 39.78 234.87 39.61
  Q 235.09 39.28 234.97 38.90
  Q 234.91 38.71 234.95 38.52
  Q 234.99 38.35 235.14 38.27
  Q 235.80 37.91 236.25 38.24
  Q 236.74 38.59 237.12 38.12
  Q 237.68 37.42 237.15 36.64
  A 0.19 0.18 62.7 0 1 237.23 36.37
  Q 237.39 36.30 237.54 36.22
  Q 237.63 36.17 237.63 36.28
  L 237.63 37.58
  Q 237.63 38.49 238.41 38.02
  Q 238.99 37.67 239.40 37.15
  A 0.41 0.09 5.6 0 1 239.75 37.11
  Q 239.98 37.12 240.15 37.40
  A 0.38 0.38 0.0 0 0 240.86 37.19
  Q 240.85 36.81 241.10 36.49
  Q 241.54 35.94 241.98 36.49
  Q 242.25 36.84 242.73 36.87
  Q 243.24 36.90 243.03 37.36
  Q 242.90 37.64 242.91 37.89
  A 0.38 0.37 -58.2 0 1 242.20 38.06
  L 241.98 37.60
  Q 241.74 37.09 241.24 37.36
  Q 240.75 37.63 241.07 38.29
  Q 241.28 38.73 241.69 38.97
  Q 243.21 39.87 244.68 40.85
  Q 245.06 41.11 245.37 41.10
  Q 246.09 41.08 246.25 40.26
  Q 246.29 40.08 246.47 40.12
  L 247.02 40.25
  Q 247.21 40.30 247.19 40.10
  Q 247.15 39.79 247.16 39.74
  Q 247.43 38.26 247.89 39.70
  Q 247.93 39.82 247.78 40.07
  Q 247.55 40.46 247.99 40.60
  Q 249.65 41.13 249.99 39.52
  A 0.39 0.39 0.0 0 1 250.75 39.52
  Q 250.90 40.31 251.32 40.99
  Q 251.62 41.48 251.69 40.92
  Q 251.82 39.99 252.81 39.87
  Q 253.31 39.81 253.39 39.32
  Q 253.49 38.76 254.05 38.85
  Q 254.47 38.92 254.40 39.34
  Q 254.37 39.53 254.47 39.68
  Q 254.72 40.04 254.82 39.62
  Q 255.30 37.79 256.00 38.48
  Z" fill="#5d2778"></path>
<path d="M 185.43 57.19
  L 187.18 58.45
  L 186.36 60.04
  Q 186.14 60.48 186.46 60.86
  Q 189.56 64.47 191.41 68.85
  C 191.94 70.12 192.98 71.11 193.33 72.70
  C 194.04 75.90 195.34 79.18 195.66 82.18
  Q 195.98 85.13 195.87 88.07
  Q 195.87 88.10 195.88 88.07
  Q 196.03 87.66 195.80 87.44
  Q 195.42 87.07 195.32 87.60
  Q 194.07 94.76 192.97 96.48
  C 191.80 98.33 191.09 100.35 189.72 101.97
  Q 187.47 104.62 185.05 107.11
  C 183.89 108.31 182.60 109.03 181.22 109.92
  C 180.36 110.48 179.11 110.58 178.38 111.70
  Q 178.12 112.11 177.67 112.32
  Q 169.77 115.92 161.39 118.17
  Q 153.31 120.35 145.20 122.45
  C 144.45 122.64 143.58 122.53 142.96 122.81
  Q 140.26 124.04 136.24 126.24
  Q 135.15 126.84 134.48 127.53
  Q 134.16 127.86 133.70 127.88
  C 131.76 127.97 131.80 129.61 130.25 130.29
  Q 129.81 130.47 129.45 130.77
  L 122.66 136.46
  Q 122.39 136.68 122.05 136.63
  Q 121.53 136.55 121.08 136.71
  Q 120.81 136.81 120.89 137.08
  Q 120.95 137.31 120.90 137.45
  Q 120.84 137.61 120.55 137.65
  Q 119.91 137.74 119.34 137.56
  Q 119.03 137.46 119.26 137.24
  Q 119.44 137.06 119.69 137.11
  A 0.35 0.34 -72.8 0 0 120.08 136.90
  Q 120.23 136.51 119.98 136.23
  Q 119.84 136.08 119.63 136.05
  Q 118.46 135.90 117.88 136.62
  Q 117.39 137.25 117.13 136.49
  Q 116.91 135.83 116.45 135.27
  Q 116.18 134.94 115.76 134.88
  Q 115.39 134.83 115.17 135.06
  Q 114.99 135.25 114.79 135.09
  L 114.11 134.59
  A 0.29 0.28 49.1 0 1 114.14 134.11
  C 115.19 133.52 115.90 132.84 117.01 132.28
  Q 119.46 131.02 120.45 128.33
  Q 120.49 128.22 120.56 128.17
  Q 120.67 128.10 120.81 128.11
  A 0.55 0.54 21.5 0 0 121.24 127.93
  Q 123.05 125.89 124.87 123.88
  Q 126.16 122.44 125.20 120.61
  Q 124.96 120.15 124.44 120.12
  Q 124.06 120.10 123.88 120.42
  Q 123.65 120.82 123.22 120.99
  Q 122.36 121.33 122.47 120.76
  C 130.61 108.90 125.40 94.30 127.64 78.16
  Q 128.22 77.72 128.69 76.97
  Q 129.05 76.41 129.35 77.00
  Q 129.97 78.20 129.88 79.53
  Q 129.84 80.05 130.10 80.49
  Q 131.37 82.67 131.30 85.26
  Q 131.29 85.89 131.68 86.46
  A 1.83 1.80 25.2 0 1 131.98 87.27
  Q 132.53 91.69 133.99 95.91
  Q 134.01 95.99 133.94 96.01
  Q 133.90 96.02 133.86 96.04
  Q 133.71 96.10 133.80 96.21
  Q 134.76 97.35 135.07 98.82
  Q 135.15 99.22 135.34 99.58
  L 137.21 103.10
  A 1.66 1.66 0.0 0 0 139.57 103.72
  Q 140.16 103.34 140.87 103.36
  Q 141.30 103.38 141.64 103.12
  Q 143.17 101.96 145.08 101.83
  A 0.77 0.73 22.3 0 0 145.47 101.68
  Q 146.74 100.72 150.49 99.59
  Q 151.64 99.24 155.30 96.78
  Q 155.61 96.57 155.49 96.22
  L 155.34 95.81
  Q 155.16 95.32 155.59 95.01
  L 158.74 92.80
  Q 159.06 92.57 159.25 92.22
  Q 159.45 91.85 159.73 91.85
  Q 159.98 91.85 160.05 91.61
  Q 160.18 91.15 160.57 91.14
  Q 160.99 91.13 161.26 90.80
  Q 162.92 88.81 164.78 87.07
  Q 166.67 85.31 167.89 83.47
  Q 169.21 81.46 170.64 79.52
  C 171.14 78.83 172.04 78.50 172.13 77.28
  A 1.12 1.10 71.1 0 1 172.49 76.53
  Q 173.03 76.02 173.20 75.26
  Q 173.31 74.72 173.62 74.27
  C 175.07 72.15 176.08 69.29 176.76 67.26
  C 177.61 64.73 176.17 62.66 175.18 60.61
  Q 174.31 58.80 172.88 57.72
  Q 162.73 50.08 150.01 51.40
  Q 148.07 51.60 144.62 52.86
  Q 142.00 53.81 139.19 54.38
  C 152.98 43.67 172.40 47.09 185.43 57.19
  Z" fill="#d9ccde"></path>
<path d="M 127.64 78.16
  L 128.07 74.79
  C 129.62 66.82 132.80 59.58 139.19 54.38
  Q 142.00 53.81 144.62 52.86
  Q 148.07 51.60 150.01 51.40
  Q 162.73 50.08 172.88 57.72
  Q 174.31 58.80 175.18 60.61
  C 176.17 62.66 177.61 64.73 176.76 67.26
  C 176.08 69.29 175.07 72.15 173.62 74.27
  Q 173.31 74.72 173.20 75.26
  Q 173.03 76.02 172.49 76.53
  A 1.12 1.10 71.1 0 0 172.13 77.28
  C 172.04 78.50 171.14 78.83 170.64 79.52
  Q 169.21 81.46 167.89 83.47
  Q 166.67 85.31 164.78 87.07
  Q 162.92 88.81 161.26 90.80
  Q 160.99 91.13 160.57 91.14
  Q 160.18 91.15 160.05 91.61
  Q 159.98 91.85 159.73 91.85
  Q 159.45 91.85 159.25 92.22
  Q 159.06 92.57 158.74 92.80
  L 155.59 95.01
  Q 155.16 95.32 155.34 95.81
  L 155.49 96.22
  Q 155.61 96.57 155.30 96.78
  Q 151.64 99.24 150.49 99.59
  Q 146.74 100.72 145.47 101.68
  A 0.77 0.73 22.3 0 1 145.08 101.83
  Q 143.17 101.96 141.64 103.12
  Q 141.30 103.38 140.87 103.36
  Q 140.16 103.34 139.57 103.72
  A 1.66 1.66 0.0 0 1 137.21 103.10
  L 135.34 99.58
  Q 135.15 99.22 135.07 98.82
  Q 134.76 97.35 133.80 96.21
  Q 133.71 96.10 133.86 96.04
  Q 133.90 96.02 133.94 96.01
  Q 134.01 95.99 133.99 95.91
  Q 132.53 91.69 131.98 87.27
  A 1.83 1.80 25.2 0 0 131.68 86.46
  Q 131.29 85.89 131.30 85.26
  Q 131.37 82.67 130.10 80.49
  Q 129.84 80.05 129.88 79.53
  Q 129.97 78.20 129.35 77.00
  Q 129.05 76.41 128.69 76.97
  Q 128.22 77.72 127.64 78.16
  Z" fill="#e2d9e6"></path>
<path d="M 187.18 58.45
  Q 199.78 69.50 202.57 85.88
  Q 203.42 93.77 201.37 100.45
  C 194.06 120.86 168.76 121.62 151.25 125.29
  C 134.88 128.73 130.99 136.57 130.15 152.73
  C 129.27 167.47 129.12 188.54 118.25 200.06
  C 100.84 218.51 72.40 204.25 60.55 187.66
  C 52.93 176.68 50.68 161.75 58.56 150.80
  C 71.24 133.15 96.42 134.12 114.85 126.22
  Q 119.19 124.27 122.47 120.76
  Q 122.36 121.33 123.22 120.99
  Q 123.65 120.82 123.88 120.42
  Q 124.06 120.10 124.44 120.12
  Q 124.96 120.15 125.20 120.61
  Q 126.16 122.44 124.87 123.88
  Q 123.05 125.89 121.24 127.93
  A 0.55 0.54 21.5 0 1 120.81 128.11
  Q 120.67 128.10 120.56 128.17
  Q 120.49 128.22 120.45 128.33
  Q 119.46 131.02 117.01 132.28
  C 115.90 132.84 115.19 133.52 114.14 134.11
  A 0.29 0.28 49.1 0 0 114.11 134.59
  L 114.79 135.09
  Q 114.99 135.25 115.17 135.06
  Q 115.39 134.83 115.76 134.88
  Q 116.18 134.94 116.45 135.27
  Q 116.91 135.83 117.13 136.49
  Q 117.39 137.25 117.88 136.62
  Q 118.46 135.90 119.63 136.05
  Q 119.84 136.08 119.98 136.23
  Q 120.23 136.51 120.08 136.90
  A 0.35 0.34 -72.8 0 1 119.69 137.11
  Q 119.44 137.06 119.26 137.24
  Q 119.03 137.46 119.34 137.56
  Q 119.91 137.74 120.55 137.65
  Q 120.84 137.61 120.90 137.45
  Q 120.95 137.31 120.89 137.08
  Q 120.81 136.81 121.08 136.71
  Q 121.53 136.55 122.05 136.63
  Q 122.39 136.68 122.66 136.46
  L 129.45 130.77
  Q 129.81 130.47 130.25 130.29
  C 131.80 129.61 131.76 127.97 133.70 127.88
  Q 134.16 127.86 134.48 127.53
  Q 135.15 126.84 136.24 126.24
  Q 140.26 124.04 142.96 122.81
  C 143.58 122.53 144.45 122.64 145.20 122.45
  Q 153.31 120.35 161.39 118.17
  Q 169.77 115.92 177.67 112.32
  Q 178.12 112.11 178.38 111.70
  C 179.11 110.58 180.36 110.48 181.22 109.92
  C 182.60 109.03 183.89 108.31 185.05 107.11
  Q 187.47 104.62 189.72 101.97
  C 191.09 100.35 191.80 98.33 192.97 96.48
  Q 194.07 94.76 195.32 87.60
  Q 195.42 87.07 195.80 87.44
  Q 196.03 87.66 195.88 88.07
  Q 195.87 88.10 195.87 88.07
  Q 195.98 85.13 195.66 82.18
  C 195.34 79.18 194.04 75.90 193.33 72.70
  C 192.98 71.11 191.94 70.12 191.41 68.85
  Q 189.56 64.47 186.46 60.86
  Q 186.14 60.48 186.36 60.04
  L 187.18 58.45
  Z
  M 74.57 198.58
  C 76.79 200.86 78.91 201.48 81.28 202.88
  Q 81.70 203.13 82.19 203.09
  Q 82.59 203.06 82.74 203.14
  C 88.39 206.06 96.00 206.32 102.49 205.78
  Q 104.33 205.63 105.41 205.23
  Q 105.87 205.05 106.16 204.66
  Q 106.45 204.28 106.91 204.36
  Q 107.42 204.44 107.87 204.17
  C 108.99 203.50 110.07 203.13 111.02 202.23
  Q 113.83 199.55 116.33 196.55
  C 117.11 195.62 117.47 194.61 118.17 193.56
  Q 119.08 192.19 119.40 191.27
  C 121.00 186.64 123.13 172.80 114.78 172.77
  Q 114.31 172.77 113.97 172.44
  Q 112.97 171.50 112.00 172.26
  Q 111.60 172.58 111.13 172.37
  Q 110.31 172.01 109.79 171.33
  A 0.82 0.81 -26.0 0 0 108.93 171.04
  Q 107.75 171.36 106.98 170.46
  Q 106.62 170.05 106.15 170.30
  Q 105.95 170.39 105.79 170.54
  Q 105.41 170.86 104.94 170.69
  Q 103.14 170.03 101.90 168.63
  Q 101.51 168.18 101.11 168.62
  Q 100.60 169.17 99.82 169.23
  Q 99.29 169.27 99.08 168.78
  Q 99.00 168.61 98.89 168.43
  Q 98.66 168.08 98.24 168.08
  L 96.30 168.10
  Q 95.73 168.10 95.31 167.72
  Q 94.64 167.11 93.75 167.08
  A 1.24 0.77 52.8 0 1 93.15 166.85
  Q 92.96 166.72 92.93 166.48
  A 0.46 0.45 -7.7 0 0 92.42 166.10
  Q 91.15 166.27 90.53 165.19
  Q 90.45 165.06 90.32 165.14
  L 90.02 165.33
  Q 89.69 165.54 89.33 165.39
  Q 87.56 164.67 85.72 164.70
  Q 85.21 164.71 85.13 164.21
  Q 84.88 162.57 83.09 163.18
  A 0.99 0.98 -32.8 0 1 82.10 162.97
  Q 81.09 162.02 79.80 161.48
  Q 79.46 161.34 79.14 161.51
  Q 78.95 161.61 78.74 161.61
  Q 78.30 161.62 77.95 161.35
  Q 77.43 160.94 76.91 161.42
  Q 76.50 161.79 76.25 161.29
  Q 75.62 159.98 74.63 159.39
  Q 74.35 159.22 74.00 159.33
  Q 73.60 159.46 73.24 159.23
  L 70.56 157.53
  Q 70.20 157.31 69.81 157.47
  Q 69.31 157.67 69.19 157.22
  A 0.61 0.61 0.0 0 0 68.43 156.79
  Q 66.89 157.21 65.31 157.05
  Q 64.91 157.01 64.62 157.28
  C 62.82 158.93 61.10 160.41 60.20 162.73
  C 57.06 170.82 59.13 176.70 62.13 184.91
  Q 62.31 185.41 62.74 185.72
  Q 63.24 186.07 63.14 186.61
  A 0.81 0.80 31.5 0 0 63.30 187.26
  Q 63.97 188.11 65.90 191.01
  Q 66.95 192.60 72.44 197.20
  C 73.05 197.72 73.91 197.91 74.57 198.58
  Z" fill="#caafce"></path>
<path d="M 128.07 74.79
  L 127.64 78.16
  C 125.40 94.30 130.61 108.90 122.47 120.76
  Q 119.19 124.27 114.85 126.22
  L 114.47 123.37
  Q 114.40 122.85 114.60 122.37
  L 116.62 117.52
  A 0.25 0.25 0.0 0 1 117.09 117.56
  Q 117.16 117.91 117.08 118.27
  A 0.19 0.18 -21.5 0 0 117.41 118.41
  C 117.89 117.76 117.43 116.71 117.96 115.86
  Q 118.20 115.47 118.04 115.04
  L 116.02 109.70
  Q 115.45 108.18 114.85 109.92
  Q 114.70 110.36 114.32 110.69
  Q 113.98 110.99 113.72 110.61
  Q 113.09 109.67 112.16 108.95
  Q 111.87 108.74 111.82 109.09
  Q 111.64 110.42 112.00 111.70
  Q 112.26 112.65 111.55 111.98
  Q 109.23 109.78 106.25 110.40
  Q 100.85 111.53 97.60 111.76
  Q 97.07 111.79 96.65 112.12
  Q 95.84 112.74 94.97 112.43
  Q 94.63 112.31 94.36 112.54
  Q 94.16 112.72 93.83 112.69
  Q 93.67 112.68 93.17 112.42
  Q 92.42 112.03 91.55 112.58
  A 0.12 0.12 0.0 0 1 91.41 112.38
  Q 91.68 112.17 91.67 112.02
  Q 91.67 111.98 91.14 111.91
  Q 90.85 111.87 90.58 112.00
  Q 90.19 112.19 90.00 111.81
  Q 89.78 111.35 89.25 111.17
  Q 88.19 110.82 87.69 111.61
  Q 87.34 112.15 87.18 111.53
  L 87.05 111.01
  A 0.22 0.22 0.0 0 0 86.62 111.07
  Q 86.65 112.47 87.80 113.12
  Q 88.45 113.48 87.71 113.57
  C 86.35 113.73 85.06 113.57 83.78 113.81
  Q 76.55 115.18 69.23 115.88
  Q 66.33 116.15 63.66 117.28
  A 0.31 0.30 34.3 0 1 63.49 117.31
  Q 61.24 116.99 59.88 117.80
  Q 59.50 118.03 59.07 117.95
  C 57.08 117.60 55.38 118.56 53.78 118.74
  Q 52.40 118.89 51.04 119.13
  Q 48.38 119.60 45.68 119.88
  Q 43.21 120.14 40.38 120.77
  C 36.73 121.58 32.90 121.66 29.41 122.48
  Q 27.05 123.04 24.68 123.57
  Q 24.33 123.65 24.33 123.29
  Q 24.34 123.12 24.38 122.96
  Q 24.51 122.51 24.21 122.15
  Q 23.61 121.42 22.69 121.94
  Q 22.37 122.12 22.34 121.75
  Q 22.31 121.25 21.75 121.35
  Q 18.63 121.92 12.31 123.57
  C 9.01 124.43 5.78 124.75 2.43 125.24
  A 0.38 0.37 -13.4 0 0 2.13 125.72
  Q 2.27 126.14 1.41 125.57
  A 0.51 0.51 0.0 0 1 1.18 125.23
  Q 1.13 124.97 0.95 124.75
  Q 0.89 124.68 0.87 124.77
  Q 0.84 124.93 0.77 125.05
  Q 0.58 125.31 0.50 125.00
  Q 0.46 124.80 0.43 124.60
  Q 0.40 124.44 0.40 124.60
  Q 0.40 125.33 0.00 125.25
  L 0.00 95.96
  L 0.55 95.91
  Q 1.15 95.85 1.15 95.25
  L 1.15 94.63
  Q 1.15 93.94 1.82 93.80
  L 21.47 89.60
  Q 22.06 89.47 22.42 89.95
  Q 22.56 90.14 22.82 90.13
  Q 23.25 90.12 23.52 89.78
  L 24.07 89.11
  Q 24.37 88.74 24.83 88.65
  Q 31.04 87.47 37.24 86.45
  Q 41.25 85.79 43.65 85.19
  C 46.85 84.38 49.90 84.06 53.25 83.01
  Q 57.58 81.65 64.36 81.18
  C 65.63 81.09 67.06 80.57 69.00 80.63
  Q 72.24 80.73 81.73 78.36
  C 85.60 77.39 89.76 76.96 94.01 76.13
  Q 95.37 75.86 97.08 76.10
  Q 97.58 76.17 98.03 75.96
  C 100.33 74.91 102.39 75.47 104.29 74.58
  Q 104.73 74.37 105.18 74.57
  Q 105.62 74.76 105.85 74.25
  Q 106.06 73.77 106.59 73.87
  Q 108.80 74.31 110.86 73.61
  C 112.88 72.92 114.20 73.12 116.14 73.27
  Q 116.58 73.31 116.77 73.71
  L 116.97 74.16
  Q 117.21 74.69 117.78 74.79
  Q 118.96 74.99 119.38 75.75
  Q 120.52 77.81 121.43 78.84
  Q 121.93 79.41 122.08 78.66
  Q 122.32 77.50 123.00 76.50
  Q 123.16 76.27 123.32 76.51
  Q 124.04 77.61 125.21 77.10
  A 0.31 0.30 -11.4 0 1 125.63 77.37
  L 125.63 77.70
  A 0.23 0.23 0.0 0 0 126.08 77.76
  L 127.39 73.46
  Q 127.41 73.38 127.50 73.38
  Q 127.63 73.37 127.76 73.37
  A 0.13 0.13 0.0 0 1 127.89 73.52
  Q 127.78 74.21 128.07 74.79
  Z" fill="#5d2778"></path>
<path d="M 256.00 90.12
  L 256.00 183.52
  Q 255.17 183.00 254.61 182.09
  Q 254.40 181.74 254.00 181.81
  Q 253.51 181.90 253.12 181.37
  C 250.93 180.52 249.16 181.49 247.31 181.36
  Q 238.53 180.76 229.75 180.15
  Q 225.60 179.87 210.78 182.15
  Q 205.71 182.93 200.66 183.98
  Q 200.22 184.08 199.79 183.93
  Q 199.29 183.75 198.91 183.41
  Q 198.49 183.05 197.95 183.17
  Q 186.03 185.87 177.11 186.59
  Q 176.55 186.63 175.92 186.05
  Q 175.54 185.70 175.03 185.78
  Q 170.20 186.51 165.33 186.75
  Q 160.09 187.01 156.98 187.52
  Q 152.85 188.20 148.74 189.01
  C 147.54 189.24 146.60 190.08 145.24 189.21
  Q 144.86 188.97 144.43 189.10
  C 140.06 190.44 137.03 194.57 133.67 197.55
  Q 133.29 197.89 132.86 197.61
  Q 132.40 197.31 132.05 196.87
  A 0.47 0.46 46.4 0 0 131.33 196.85
  Q 129.89 198.54 128.52 200.29
  Q 128.40 200.44 128.27 200.46
  Q 128.08 200.48 127.93 200.35
  Q 127.67 200.14 127.46 200.39
  C 125.20 202.99 122.81 205.80 120.11 207.95
  Q 119.00 208.83 118.00 209.82
  C 116.43 211.38 115.02 212.24 113.25 213.32
  Q 113.15 213.39 113.06 213.30
  Q 112.96 213.19 112.84 213.09
  Q 112.63 212.90 112.38 213.02
  C 109.73 214.28 107.29 215.72 104.40 216.27
  Q 101.12 216.90 97.80 217.33
  Q 94.43 217.75 91.24 216.92
  C 85.80 215.49 79.84 213.87 75.25 210.24
  Q 73.60 208.94 72.04 208.13
  C 68.62 206.34 66.86 203.09 64.12 200.60
  C 61.81 198.49 60.59 196.45 59.00 193.97
  C 57.97 192.37 55.91 190.31 55.13 187.75
  Q 55.62 185.80 54.28 183.73
  A 0.61 0.61 0.0 0 1 54.89 182.80
  Q 54.97 182.82 55.15 183.10
  C 55.68 183.94 55.30 184.31 56.28 185.11
  Q 56.67 185.43 56.68 185.94
  Q 56.69 187.70 58.00 188.82
  Q 58.13 188.92 58.13 188.76
  Q 58.13 188.62 58.12 188.47
  Q 58.11 188.14 58.41 188.29
  Q 58.54 188.37 58.67 188.51
  Q 59.00 188.90 58.89 188.50
  Q 58.82 188.24 58.97 188.04
  Q 59.15 187.79 59.42 187.95
  Q 59.55 188.03 59.60 188.15
  Q 59.61 188.17 59.61 188.15
  Q 59.62 188.03 59.66 187.93
  Q 59.73 187.72 59.93 187.66
  Q 60.19 187.58 60.55 187.66
  C 72.40 204.25 100.84 218.51 118.25 200.06
  C 129.12 188.54 129.27 167.47 130.15 152.73
  L 130.13 155.84
  A 0.53 0.53 0.0 0 0 131.01 156.24
  Q 131.20 156.07 131.26 155.90
  Q 131.34 155.62 131.58 155.46
  Q 136.46 152.21 142.24 151.11
  Q 142.46 151.07 142.56 150.90
  Q 142.64 150.78 142.78 150.74
  L 150.86 148.63
  A 0.80 0.79 6.5 0 0 151.34 148.25
  L 151.61 147.77
  Q 151.81 147.40 152.22 147.35
  L 154.23 147.08
  Q 154.71 147.02 155.15 146.81
  Q 155.92 146.43 156.35 145.81
  Q 156.68 145.32 157.27 145.37
  C 159.76 145.55 161.83 144.45 164.05 144.25
  Q 167.81 143.91 171.38 142.82
  Q 172.14 142.59 174.14 142.17
  C 176.72 141.63 179.20 138.96 181.30 137.37
  Q 181.69 137.08 181.82 136.62
  Q 181.93 136.25 182.26 136.01
  Q 187.78 132.02 192.88 127.52
  C 194.08 126.47 199.76 119.64 200.02 116.61
  Q 200.11 115.43 200.09 114.17
  Q 200.08 113.66 200.49 113.37
  Q 201.29 112.82 200.57 112.08
  A 0.88 0.87 36.7 0 1 200.42 111.08
  Q 201.35 109.27 201.12 107.25
  Q 201.06 106.78 201.29 106.37
  Q 203.17 102.83 201.37 100.45
  Q 203.42 93.77 202.57 85.88
  Q 203.72 87.23 204.35 89.26
  Q 204.49 89.72 204.95 89.87
  C 208.53 90.97 207.94 99.21 208.73 101.77
  Q 208.92 102.36 209.11 101.77
  L 210.59 97.29
  Q 210.68 97.01 210.88 97.22
  Q 211.33 97.68 210.87 97.79
  A 0.38 0.38 0.0 0 0 210.61 98.31
  Q 211.51 100.47 211.38 102.76
  A 0.28 0.28 0.0 0 0 211.92 102.87
  L 212.23 101.96
  Q 212.43 101.37 212.85 100.89
  Q 213.85 99.77 213.43 98.38
  Q 213.32 97.99 213.51 97.63
  Q 213.93 96.83 213.93 95.99
  Q 213.92 95.50 214.31 95.18
  L 217.13 92.91
  Q 217.49 92.62 217.96 92.62
  L 220.00 92.62
  Q 220.37 92.62 220.37 92.25
  L 220.37 91.82
  Q 220.37 91.48 220.62 91.71
  Q 220.97 92.02 220.36 92.27
  A 0.27 0.27 0.0 0 0 220.52 92.78
  L 226.85 91.29
  Q 227.40 91.16 227.93 91.32
  Q 228.53 91.50 229.09 91.21
  Q 229.45 91.02 229.85 91.06
  Q 232.47 91.30 234.36 89.40
  Q 234.55 89.22 234.74 89.40
  Q 234.84 89.49 234.95 89.57
  Q 235.05 89.63 235.15 89.55
  Q 235.64 89.15 235.96 89.68
  Q 236.32 90.27 236.86 89.83
  Q 237.88 88.99 239.27 89.72
  A 0.54 0.53 25.9 0 0 240.01 89.47
  Q 240.09 89.29 240.20 89.12
  Q 240.27 89.01 240.40 88.99
  Q 241.16 88.87 241.73 89.51
  A 0.52 0.51 44.7 0 0 242.50 89.51
  Q 242.89 89.07 242.98 88.49
  A 0.45 0.45 0.0 0 1 243.74 88.24
  L 244.16 88.66
  A 0.68 0.68 0.0 0 0 244.87 88.81
  Q 245.51 88.57 245.86 88.02
  Q 246.10 87.66 246.48 87.45
  Q 248.12 86.55 249.04 87.79
  A 2.47 2.25 40.2 0 0 253.11 87.64
  Q 253.25 87.31 254.38 87.37
  Q 254.63 87.38 254.70 87.63
  Q 254.89 88.27 255.36 88.80
  Q 255.61 89.07 255.63 89.44
  Q 255.65 89.92 256.00 90.12
  Z" fill="#702470"></path>
<path d="M 201.37 100.45
  Q 203.17 102.83 201.29 106.37
  Q 201.06 106.78 201.12 107.25
  Q 201.35 109.27 200.42 111.08
  A 0.88 0.87 36.7 0 0 200.57 112.08
  Q 201.29 112.82 200.49 113.37
  Q 200.08 113.66 200.09 114.17
  Q 200.11 115.43 200.02 116.61
  C 199.76 119.64 194.08 126.47 192.88 127.52
  Q 187.78 132.02 182.26 136.01
  Q 181.93 136.25 181.82 136.62
  Q 181.69 137.08 181.30 137.37
  C 179.20 138.96 176.72 141.63 174.14 142.17
  Q 172.14 142.59 171.38 142.82
  Q 167.81 143.91 164.05 144.25
  C 161.83 144.45 159.76 145.55 157.27 145.37
  Q 156.68 145.32 156.35 145.81
  Q 155.92 146.43 155.15 146.81
  Q 154.71 147.02 154.23 147.08
  L 152.22 147.35
  Q 151.81 147.40 151.61 147.77
  L 151.34 148.25
  A 0.80 0.79 6.5 0 1 150.86 148.63
  L 142.78 150.74
  Q 142.64 150.78 142.56 150.90
  Q 142.46 151.07 142.24 151.11
  Q 136.46 152.21 131.58 155.46
  Q 131.34 155.62 131.26 155.90
  Q 131.20 156.07 131.01 156.24
  A 0.53 0.53 0.0 0 1 130.13 155.84
  L 130.15 152.73
  C 130.99 136.57 134.88 128.73 151.25 125.29
  C 168.76 121.62 194.06 120.86 201.37 100.45
  Z" fill="#591e5f"></path>
<path d="M 114.85 126.22
  C 96.42 134.12 71.24 133.15 58.56 150.80
  C 50.68 161.75 52.93 176.68 60.55 187.66
  Q 60.19 187.58 59.93 187.66
  Q 59.73 187.72 59.66 187.93
  Q 59.62 188.03 59.61 188.15
  Q 59.61 188.17 59.60 188.15
  Q 59.55 188.03 59.42 187.95
  Q 59.15 187.79 58.97 188.04
  Q 58.82 188.24 58.89 188.50
  Q 59.00 188.90 58.67 188.51
  Q 58.54 188.37 58.41 188.29
  Q 58.11 188.14 58.12 188.47
  Q 58.13 188.62 58.13 188.76
  Q 58.13 188.92 58.00 188.82
  Q 56.69 187.70 56.68 185.94
  Q 56.67 185.43 56.28 185.11
  C 55.30 184.31 55.68 183.94 55.15 183.10
  Q 54.97 182.82 54.89 182.80
  A 0.61 0.61 0.0 0 0 54.28 183.73
  Q 55.62 185.80 55.13 187.75
  L 52.63 183.45
  Q 52.59 183.37 52.54 183.37
  Q 52.51 183.36 52.47 183.37
  A 0.13 0.08 -14.6 0 0 52.34 183.51
  Q 52.76 183.96 52.53 184.45
  Q 52.42 184.66 52.26 184.50
  L 52.00 184.24
  A 0.08 0.08 0.0 0 0 51.86 184.30
  Q 51.94 184.96 51.59 185.52
  Q 51.34 185.92 51.05 185.54
  L 47.97 181.49
  L 42.11 174.93
  Q 41.97 174.77 41.78 174.87
  Q 41.65 174.95 41.52 174.96
  Q 41.27 175.00 41.21 175.24
  Q 41.12 175.62 41.32 175.92
  Q 41.74 176.56 41.07 176.20
  Q 37.60 174.34 33.79 175.87
  Q 33.59 175.95 33.63 176.18
  Q 33.65 176.31 33.52 176.30
  Q 32.17 176.17 32.00 175.08
  Q 31.93 174.66 31.51 174.61
  C 29.53 174.39 27.67 175.10 26.16 175.28
  Q 18.70 176.16 11.25 177.13
  Q 4.29 178.05 0.00 177.35
  L 0.00 125.25
  Q 0.40 125.33 0.40 124.60
  Q 0.40 124.44 0.43 124.60
  Q 0.46 124.80 0.50 125.00
  Q 0.58 125.31 0.77 125.05
  Q 0.84 124.93 0.87 124.77
  Q 0.89 124.68 0.95 124.75
  Q 1.13 124.97 1.18 125.23
  A 0.51 0.51 0.0 0 0 1.41 125.57
  Q 2.27 126.14 2.13 125.72
  A 0.38 0.37 -13.4 0 1 2.43 125.24
  C 5.78 124.75 9.01 124.43 12.31 123.57
  Q 18.63 121.92 21.75 121.35
  Q 22.31 121.25 22.34 121.75
  Q 22.37 122.12 22.69 121.94
  Q 23.61 121.42 24.21 122.15
  Q 24.51 122.51 24.38 122.96
  Q 24.34 123.12 24.33 123.29
  Q 24.33 123.65 24.68 123.57
  Q 27.05 123.04 29.41 122.48
  C 32.90 121.66 36.73 121.58 40.38 120.77
  Q 43.21 120.14 45.68 119.88
  Q 48.38 119.60 51.04 119.13
  Q 52.40 118.89 53.78 118.74
  C 55.38 118.56 57.08 117.60 59.07 117.95
  Q 59.50 118.03 59.88 117.80
  Q 61.24 116.99 63.49 117.31
  A 0.31 0.30 34.3 0 0 63.66 117.28
  Q 66.33 116.15 69.23 115.88
  Q 76.55 115.18 83.78 113.81
  C 85.06 113.57 86.35 113.73 87.71 113.57
  Q 88.45 113.48 87.80 113.12
  Q 86.65 112.47 86.62 111.07
  A 0.22 0.22 0.0 0 1 87.05 111.01
  L 87.18 111.53
  Q 87.34 112.15 87.69 111.61
  Q 88.19 110.82 89.25 111.17
  Q 89.78 111.35 90.00 111.81
  Q 90.19 112.19 90.58 112.00
  Q 90.85 111.87 91.14 111.91
  Q 91.67 111.98 91.67 112.02
  Q 91.68 112.17 91.41 112.38
  A 0.12 0.12 0.0 0 0 91.55 112.58
  Q 92.42 112.03 93.17 112.42
  Q 93.67 112.68 93.83 112.69
  Q 94.16 112.72 94.36 112.54
  Q 94.63 112.31 94.97 112.43
  Q 95.84 112.74 96.65 112.12
  Q 97.07 111.79 97.60 111.76
  Q 100.85 111.53 106.25 110.40
  Q 109.23 109.78 111.55 111.98
  Q 112.26 112.65 112.00 111.70
  Q 111.64 110.42 111.82 109.09
  Q 111.87 108.74 112.16 108.95
  Q 113.09 109.67 113.72 110.61
  Q 113.98 110.99 114.32 110.69
  Q 114.70 110.36 114.85 109.92
  Q 115.45 108.18 116.02 109.70
  L 118.04 115.04
  Q 118.20 115.47 117.96 115.86
  C 117.43 116.71 117.89 117.76 117.41 118.41
  A 0.19 0.18 -21.5 0 1 117.08 118.27
  Q 117.16 117.91 117.09 117.56
  A 0.25 0.25 0.0 0 0 116.62 117.52
  L 114.60 122.37
  Q 114.40 122.85 114.47 123.37
  L 114.85 126.22
  Z" fill="#68267a"></path>
<path d="M 74.57 198.58
  C 73.91 197.91 73.05 197.72 72.44 197.20
  Q 66.95 192.60 65.90 191.01
  Q 63.97 188.11 63.30 187.26
  A 0.81 0.80 31.5 0 1 63.14 186.61
  Q 63.24 186.07 62.74 185.72
  Q 62.31 185.41 62.13 184.91
  C 59.13 176.70 57.06 170.82 60.20 162.73
  C 61.10 160.41 62.82 158.93 64.62 157.28
  Q 64.91 157.01 65.31 157.05
  Q 66.89 157.21 68.43 156.79
  A 0.61 0.61 0.0 0 1 69.19 157.22
  Q 69.31 157.67 69.81 157.47
  Q 70.20 157.31 70.56 157.53
  L 73.24 159.23
  Q 73.60 159.46 74.00 159.33
  Q 74.35 159.22 74.63 159.39
  Q 75.62 159.98 76.25 161.29
  Q 76.50 161.79 76.91 161.42
  Q 77.43 160.94 77.95 161.35
  Q 78.30 161.62 78.74 161.61
  Q 78.95 161.61 79.14 161.51
  Q 79.46 161.34 79.80 161.48
  Q 81.09 162.02 82.10 162.97
  A 0.99 0.98 -32.8 0 0 83.09 163.18
  Q 84.88 162.57 85.13 164.21
  Q 85.21 164.71 85.72 164.70
  Q 87.56 164.67 89.33 165.39
  Q 89.69 165.54 90.02 165.33
  L 90.32 165.14
  Q 90.45 165.06 90.53 165.19
  Q 91.15 166.27 92.42 166.10
  A 0.46 0.45 -7.7 0 1 92.93 166.48
  Q 92.96 166.72 93.15 166.85
  A 1.24 0.77 52.8 0 0 93.75 167.08
  Q 94.64 167.11 95.31 167.72
  Q 95.73 168.10 96.30 168.10
  L 98.24 168.08
  Q 98.66 168.08 98.89 168.43
  Q 99.00 168.61 99.08 168.78
  Q 99.29 169.27 99.82 169.23
  Q 100.60 169.17 101.11 168.62
  Q 101.51 168.18 101.90 168.63
  Q 103.14 170.03 104.94 170.69
  Q 105.41 170.86 105.79 170.54
  Q 105.95 170.39 106.15 170.30
  Q 106.62 170.05 106.98 170.46
  Q 107.75 171.36 108.93 171.04
  A 0.82 0.81 -26.0 0 1 109.79 171.33
  Q 110.31 172.01 111.13 172.37
  Q 111.60 172.58 112.00 172.26
  Q 112.97 171.50 113.97 172.44
  Q 114.31 172.77 114.78 172.77
  C 123.13 172.80 121.00 186.64 119.40 191.27
  Q 119.08 192.19 118.17 193.56
  C 117.47 194.61 117.11 195.62 116.33 196.55
  Q 113.83 199.55 111.02 202.23
  C 110.07 203.13 108.99 203.50 107.87 204.17
  Q 107.42 204.44 106.91 204.36
  Q 106.45 204.28 106.16 204.66
  Q 105.87 205.05 105.41 205.23
  Q 104.33 205.63 102.49 205.78
  C 96.00 206.32 88.39 206.06 82.74 203.14
  Q 82.59 203.06 82.19 203.09
  Q 81.70 203.13 81.28 202.88
  C 78.91 201.48 76.79 200.86 74.57 198.58
  Z" fill="#e0c9e0"></path>
<path d="M 47.97 181.49
  L 49.18 185.37
  Q 49.32 185.83 48.98 185.49
  L 48.50 185.01
  Q 48.49 185.00 48.47 185.00
  Q 48.20 184.99 48.09 185.16
  Q 47.97 185.32 48.06 185.50
  L 51.27 191.81
  Q 51.32 191.89 51.27 191.89
  Q 51.13 191.89 50.99 191.87
  Q 50.32 191.78 50.65 192.37
  L 52.19 195.17
  Q 52.41 195.57 52.87 195.63
  Q 53.70 195.75 54.02 196.49
  C 55.15 199.09 57.41 199.05 58.41 201.62
  Q 58.57 202.05 58.37 202.46
  L 57.71 203.79
  Q 57.46 204.30 57.87 204.69
  L 60.10 206.80
  Q 60.47 207.16 60.42 207.68
  Q 60.28 209.10 59.16 210.04
  Q 58.80 210.34 59.11 210.68
  L 61.88 213.78
  Q 62.07 213.98 61.82 214.11
  Q 61.70 214.16 61.59 214.22
  A 0.28 0.28 0.0 0 0 61.53 214.67
  L 65.88 218.84
  Q 66.08 219.03 65.82 219.12
  Q 65.62 219.19 65.44 219.29
  Q 65.12 219.45 64.80 219.30
  L 64.08 218.97
  Q 64.03 218.94 64.02 219.00
  Q 63.99 219.14 63.97 219.30
  Q 63.94 219.61 63.70 219.41
  L 60.91 217.08
  Q 60.46 216.70 60.12 216.22
  Q 58.66 214.16 56.34 213.23
  Q 55.92 213.05 55.58 212.75
  L 53.07 210.46
  Q 52.64 210.07 52.26 210.51
  Q 51.80 211.04 51.14 210.84
  A 0.70 0.69 30.2 0 0 50.48 211.01
  L 50.27 211.22
  Q 49.88 211.62 50.24 212.05
  Q 53.29 215.60 57.36 217.88
  Q 57.83 218.14 57.79 218.61
  Q 57.77 218.87 57.50 218.87
  L 57.09 218.87
  A 0.21 0.21 0.0 0 0 56.95 219.23
  L 61.09 222.98
  A 0.15 0.14 55.9 0 1 61.05 223.23
  Q 60.77 223.33 60.90 223.61
  Q 61.03 223.88 61.33 223.88
  L 62.99 223.88
  A 1.63 1.61 63.4 0 1 63.98 224.22
  L 71.70 230.20
  Q 68.79 231.67 64.31 228.60
  Q 64.05 228.43 64.05 228.74
  Q 64.05 228.90 64.06 229.08
  A 0.27 0.26 13.2 0 1 63.66 229.32
  L 56.77 225.41
  Q 56.47 225.24 56.27 225.51
  Q 56.16 225.65 56.14 225.83
  Q 56.09 226.52 55.64 226.11
  L 53.60 224.29
  Q 53.31 224.03 52.91 224.01
  C 49.56 223.84 49.02 219.48 45.02 221.01
  Q 44.56 221.19 44.10 220.99
  C 42.14 220.16 40.77 219.02 38.67 218.52
  Q 37.38 218.21 36.12 217.83
  C 35.11 217.52 33.88 217.71 32.77 217.18
  Q 32.35 216.98 31.91 217.14
  Q 30.48 217.64 28.97 217.26
  A 2.29 2.26 -42.9 0 0 27.96 217.23
  Q 21.44 218.54 14.90 217.84
  Q 11.72 217.49 9.10 217.77
  Q 4.95 218.22 3.24 218.05
  Q 1.43 217.88 0.00 218.27
  L 0.00 177.35
  Q 4.29 178.05 11.25 177.13
  Q 18.70 176.16 26.16 175.28
  C 27.67 175.10 29.53 174.39 31.51 174.61
  Q 31.93 174.66 32.00 175.08
  Q 32.17 176.17 33.52 176.30
  Q 33.65 176.31 33.63 176.18
  Q 33.59 175.95 33.79 175.87
  Q 37.60 174.34 41.07 176.20
  Q 41.74 176.56 41.32 175.92
  Q 41.12 175.62 41.21 175.24
  Q 41.27 175.00 41.52 174.96
  Q 41.65 174.95 41.78 174.87
  Q 41.97 174.77 42.11 174.93
  L 47.97 181.49
  Z" fill="#872089"></path>
<path d="M 256.00 183.52
  L 256.00 216.36
  L 254.06 215.44
  Q 253.58 215.21 253.22 215.60
  Q 252.46 216.39 251.29 216.08
  Q 251.18 216.05 251.10 216.12
  L 250.91 216.32
  Q 250.67 216.55 250.37 216.41
  L 248.26 215.47
  Q 248.11 215.40 248.09 215.56
  Q 247.95 216.74 246.58 217.03
  A 0.32 0.31 -73.8 0 1 246.29 216.50
  L 246.49 216.31
  Q 246.65 216.14 246.42 216.14
  L 238.03 215.82
  Q 237.66 215.80 237.92 216.07
  L 238.27 216.42
  Q 238.59 216.73 238.95 216.48
  Q 239.81 215.88 240.69 216.40
  Q 241.46 216.87 240.56 216.86
  Q 237.09 216.86 233.65 216.49
  Q 232.65 216.38 230.85 216.47
  Q 229.42 216.55 228.01 216.28
  Q 225.75 215.86 223.90 215.91
  C 221.76 215.96 219.66 215.37 217.69 215.38
  C 215.25 215.40 212.51 215.16 210.12 215.63
  C 208.66 215.92 206.82 215.60 205.69 215.71
  Q 198.13 216.39 190.56 216.83
  Q 190.22 216.85 190.02 216.56
  Q 189.87 216.36 189.50 216.36
  C 185.26 216.43 180.91 216.10 176.84 216.47
  Q 169.68 217.11 162.53 217.92
  Q 161.14 218.08 158.37 217.85
  Q 151.02 217.23 143.33 220.50
  Q 143.02 220.63 143.02 220.29
  Q 143.02 220.16 143.03 220.02
  Q 143.04 219.87 142.92 219.78
  Q 141.87 218.98 140.52 218.82
  Q 140.10 218.76 139.74 218.99
  Q 135.71 221.50 131.74 224.10
  C 130.98 224.60 129.14 225.61 129.09 225.73
  Q 128.93 226.03 128.64 226.22
  Q 118.75 232.50 115.97 233.73
  Q 107.45 237.54 103.00 238.59
  Q 96.86 240.05 95.00 239.64
  C 91.88 238.96 89.15 239.10 86.18 237.76
  Q 82.35 236.04 78.31 234.86
  Q 77.60 234.65 76.84 234.36
  A 0.45 0.45 0.0 0 1 76.66 233.65
  Q 77.05 233.20 76.61 232.92
  Q 74.98 231.87 71.70 230.20
  L 63.98 224.22
  A 1.63 1.61 63.4 0 0 62.99 223.88
  L 61.33 223.88
  Q 61.03 223.88 60.90 223.61
  Q 60.77 223.33 61.05 223.23
  A 0.15 0.14 55.9 0 0 61.09 222.98
  L 56.95 219.23
  A 0.21 0.21 0.0 0 1 57.09 218.87
  L 57.50 218.87
  Q 57.77 218.87 57.79 218.61
  Q 57.83 218.14 57.36 217.88
  Q 53.29 215.60 50.24 212.05
  Q 49.88 211.62 50.27 211.22
  L 50.48 211.01
  A 0.70 0.69 30.2 0 1 51.14 210.84
  Q 51.80 211.04 52.26 210.51
  Q 52.64 210.07 53.07 210.46
  L 55.58 212.75
  Q 55.92 213.05 56.34 213.23
  Q 58.66 214.16 60.12 216.22
  Q 60.46 216.70 60.91 217.08
  L 63.70 219.41
  Q 63.94 219.61 63.97 219.30
  Q 63.99 219.14 64.02 219.00
  Q 64.03 218.94 64.08 218.97
  L 64.80 219.30
  Q 65.12 219.45 65.44 219.29
  Q 65.62 219.19 65.82 219.12
  Q 66.08 219.03 65.88 218.84
  L 61.53 214.67
  A 0.28 0.28 0.0 0 1 61.59 214.22
  Q 61.70 214.16 61.82 214.11
  Q 62.07 213.98 61.88 213.78
  L 59.11 210.68
  Q 58.80 210.34 59.16 210.04
  Q 60.28 209.10 60.42 207.68
  Q 60.47 207.16 60.10 206.80
  L 57.87 204.69
  Q 57.46 204.30 57.71 203.79
  L 58.37 202.46
  Q 58.57 202.05 58.41 201.62
  C 57.41 199.05 55.15 199.09 54.02 196.49
  Q 53.70 195.75 52.87 195.63
  Q 52.41 195.57 52.19 195.17
  L 50.65 192.37
  Q 50.32 191.78 50.99 191.87
  Q 51.13 191.89 51.27 191.89
  Q 51.32 191.89 51.27 191.81
  L 48.06 185.50
  Q 47.97 185.32 48.09 185.16
  Q 48.20 184.99 48.47 185.00
  Q 48.49 185.00 48.50 185.01
  L 48.98 185.49
  Q 49.32 185.83 49.18 185.37
  L 47.97 181.49
  L 51.05 185.54
  Q 51.34 185.92 51.59 185.52
  Q 51.94 184.96 51.86 184.30
  A 0.08 0.08 0.0 0 1 52.00 184.24
  L 52.26 184.50
  Q 52.42 184.66 52.53 184.45
  Q 52.76 183.96 52.34 183.51
  A 0.13 0.08 -14.6 0 1 52.47 183.37
  Q 52.51 183.36 52.54 183.37
  Q 52.59 183.37 52.63 183.45
  L 55.13 187.75
  C 55.91 190.31 57.97 192.37 59.00 193.97
  C 60.59 196.45 61.81 198.49 64.12 200.60
  C 66.86 203.09 68.62 206.34 72.04 208.13
  Q 73.60 208.94 75.25 210.24
  C 79.84 213.87 85.80 215.49 91.24 216.92
  Q 94.43 217.75 97.80 217.33
  Q 101.12 216.90 104.40 216.27
  C 107.29 215.72 109.73 214.28 112.38 213.02
  Q 112.63 212.90 112.84 213.09
  Q 112.96 213.19 113.06 213.30
  Q 113.15 213.39 113.25 213.32
  C 115.02 212.24 116.43 211.38 118.00 209.82
  Q 119.00 208.83 120.11 207.95
  C 122.81 205.80 125.20 202.99 127.46 200.39
  Q 127.67 200.14 127.93 200.35
  Q 128.08 200.48 128.27 200.46
  Q 128.40 200.44 128.52 200.29
  Q 129.89 198.54 131.33 196.85
  A 0.47 0.46 46.4 0 1 132.05 196.87
  Q 132.40 197.31 132.86 197.61
  Q 133.29 197.89 133.67 197.55
  C 137.03 194.57 140.06 190.44 144.43 189.10
  Q 144.86 188.97 145.24 189.21
  C 146.60 190.08 147.54 189.24 148.74 189.01
  Q 152.85 188.20 156.98 187.52
  Q 160.09 187.01 165.33 186.75
  Q 170.20 186.51 175.03 185.78
  Q 175.54 185.70 175.92 186.05
  Q 176.55 186.63 177.11 186.59
  Q 186.03 185.87 197.95 183.17
  Q 198.49 183.05 198.91 183.41
  Q 199.29 183.75 199.79 183.93
  Q 200.22 184.08 200.66 183.98
  Q 205.71 182.93 210.78 182.15
  Q 225.60 179.87 229.75 180.15
  Q 238.53 180.76 247.31 181.36
  C 249.16 181.49 250.93 180.52 253.12 181.37
  Q 253.51 181.90 254.00 181.81
  Q 254.40 181.74 254.61 182.09
  Q 255.17 183.00 256.00 183.52
  Z" fill="#8b1f7e"></path>
<path d="M 256.00 216.36
  L 256.00 245.92
  Q 253.79 254.50 245.40 256.00
  L 10.02 256.00
  Q 1.48 253.74 0.00 245.39
  L 0.00 218.27
  Q 1.43 217.88 3.24 218.05
  Q 4.95 218.22 9.10 217.77
  Q 11.72 217.49 14.90 217.84
  Q 21.44 218.54 27.96 217.23
  A 2.29 2.26 -42.9 0 1 28.97 217.26
  Q 30.48 217.64 31.91 217.14
  Q 32.35 216.98 32.77 217.18
  C 33.88 217.71 35.11 217.52 36.12 217.83
  Q 37.38 218.21 38.67 218.52
  C 40.77 219.02 42.14 220.16 44.10 220.99
  Q 44.56 221.19 45.02 221.01
  C 49.02 219.48 49.56 223.84 52.91 224.01
  Q 53.31 224.03 53.60 224.29
  L 55.64 226.11
  Q 56.09 226.52 56.14 225.83
  Q 56.16 225.65 56.27 225.51
  Q 56.47 225.24 56.77 225.41
  L 63.66 229.32
  A 0.27 0.26 13.2 0 0 64.06 229.08
  Q 64.05 228.90 64.05 228.74
  Q 64.05 228.43 64.31 228.60
  Q 68.79 231.67 71.70 230.20
  Q 74.98 231.87 76.61 232.92
  Q 77.05 233.20 76.66 233.65
  A 0.45 0.45 0.0 0 0 76.84 234.36
  Q 77.60 234.65 78.31 234.86
  Q 82.35 236.04 86.18 237.76
  C 89.15 239.10 91.88 238.96 95.00 239.64
  Q 96.86 240.05 103.00 238.59
  Q 107.45 237.54 115.97 233.73
  Q 118.75 232.50 128.64 226.22
  Q 128.93 226.03 129.09 225.73
  C 129.14 225.61 130.98 224.60 131.74 224.10
  Q 135.71 221.50 139.74 218.99
  Q 140.10 218.76 140.52 218.82
  Q 141.87 218.98 142.92 219.78
  Q 143.04 219.87 143.03 220.02
  Q 143.02 220.16 143.02 220.29
  Q 143.02 220.63 143.33 220.50
  Q 151.02 217.23 158.37 217.85
  Q 161.14 218.08 162.53 217.92
  Q 169.68 217.11 176.84 216.47
  C 180.91 216.10 185.26 216.43 189.50 216.36
  Q 189.87 216.36 190.02 216.56
  Q 190.22 216.85 190.56 216.83
  Q 198.13 216.39 205.69 215.71
  C 206.82 215.60 208.66 215.92 210.12 215.63
  C 212.51 215.16 215.25 215.40 217.69 215.38
  C 219.66 215.37 221.76 215.96 223.90 215.91
  Q 225.75 215.86 228.01 216.28
  Q 229.42 216.55 230.85 216.47
  Q 232.65 216.38 233.65 216.49
  Q 237.09 216.86 240.56 216.86
  Q 241.46 216.87 240.69 216.40
  Q 239.81 215.88 238.95 216.48
  Q 238.59 216.73 238.27 216.42
  L 237.92 216.07
  Q 237.66 215.80 238.03 215.82
  L 246.42 216.14
  Q 246.65 216.14 246.49 216.31
  L 246.29 216.50
  A 0.32 0.31 -73.8 0 0 246.58 217.03
  Q 247.95 216.74 248.09 215.56
  Q 248.11 215.40 248.26 215.47
  L 250.37 216.41
  Q 250.67 216.55 250.91 216.32
  L 251.10 216.12
  Q 251.18 216.05 251.29 216.08
  Q 252.46 216.39 253.22 215.60
  Q 253.58 215.21 254.06 215.44
  L 256.00 216.36
  Z" fill="#a61992"></path>
</svg>
